<?xml version="1.0" encoding="UTF-8"?>
<svg version="1.1" xmlns="http://www.w3.org/2000/svg" width="1200" height="1200">
<path d="M0 0 C396 0 792 0 1200 0 C1200 396 1200 792 1200 1200 C804 1200 408 1200 0 1200 C0 804 0 408 0 0 Z " fill="#7399C6" transform="translate(0,0)"/>
<path d="M0 0 C1.90458984 0.00151062 1.90458984 0.00151062 3.84765625 0.00305176 C8.56511343 0.00826146 13.28255767 0.02222266 18 0.03515625 C28.56 0.05578125 39.12 0.07640625 50 0.09765625 C50 21.87765625 50 43.65765625 50 66.09765625 C47.03 66.09765625 44.06 66.09765625 41 66.09765625 C40.5978125 64.42703125 40.5978125 64.42703125 40.1875 62.72265625 C35.70854868 44.9577828 27.91406029 24.71667466 12 14.09765625 C3.38643388 9.84291891 -5.87898464 7.20328358 -15.4375 9.74609375 C-25.52143691 13.84269312 -32.14156745 21.52838911 -37 31.09765625 C-39.66686944 37.70219632 -40.96419278 44.47066711 -42.125 51.47265625 C-42.29386719 52.436875 -42.46273437 53.40109375 -42.63671875 54.39453125 C-44.68527768 66.42779865 -45.1620277 78.28460596 -45.16796875 90.47265625 C-45.1711933 92.04809599 -45.1745582 93.62353545 -45.17805481 95.19897461 C-45.18400988 98.49024141 -45.18589862 101.78148211 -45.18530273 105.07275391 C-45.18522171 108.40842132 -45.19213083 111.74395073 -45.20581055 115.07958984 C-45.34830433 140.65453726 -45.34830433 140.65453726 -43 166.09765625 C-42.74868621 168.41001384 -42.49845076 170.72248929 -42.25 173.03515625 C-40.84961005 181.48058487 -37.72747827 189.43655427 -30.8125 194.78515625 C-23.9373694 199.38213707 -15.94339377 198.63711902 -8 198.09765625 C-2.79470609 196.89584575 -0.03846586 194.57626926 2.875 190.16015625 C9.47412728 178.15771669 8.28281427 165.25057778 8.35009766 151.90209961 C8.36666292 149.49607678 8.39396009 147.09010326 8.43212891 144.68432617 C8.4871599 141.19033645 8.50880906 137.69749088 8.5234375 134.203125 C8.55744156 132.60732857 8.55744156 132.60732857 8.59213257 130.97929382 C8.57192864 123.76459918 7.22904529 118.05846371 3 112.09765625 C-2.65637933 107.52449502 -9.99320792 106.98518325 -17 106.09765625 C-17 103.12765625 -17 100.15765625 -17 97.09765625 C6.1 97.09765625 29.2 97.09765625 53 97.09765625 C53 151.87765625 53 206.65765625 53 263.09765625 C50.03 263.09765625 47.06 263.09765625 44 263.09765625 C43.62875 261.94265625 43.2575 260.78765625 42.875 259.59765625 C33.94115846 231.96083618 33.94115846 231.96083618 13 213.09765625 C6.79072655 210.49783547 1.20004953 209.62428684 -5.5 209.72265625 C-6.68529297 209.70525391 -6.68529297 209.70525391 -7.89453125 209.6875 C-16.16170063 209.72809167 -23.47163517 211.90463877 -30 217.09765625 C-35.83467568 223.2037122 -38.15056185 228.09618665 -38.375 236.41015625 C-38.0601778 246.60106752 -35.95439977 253.34243874 -28.72265625 260.74609375 C-23.64678704 265.13013 -17.92608037 268.05936989 -12 271.09765625 C-9.87320952 272.20609465 -7.7469533 273.31555847 -5.62109375 274.42578125 C2.0668139 278.42972026 9.76226541 282.4194919 17.47998047 286.36572266 C36.37159019 296.02909338 53.53897411 307.20678375 61 328.09765625 C65.69948905 344.44242004 62.77325037 361.19724385 55 376.09765625 C43.1033974 394.05970394 24.71361223 403.87434356 4 408.09765625 C-4.72816473 409.42298903 -13.48116462 409.2246914 -22.28515625 409.1953125 C-23.76525841 409.19383946 -25.24536108 409.19282098 -26.72546387 409.19226074 C-32.1711506 409.18704983 -37.61682613 409.17308862 -43.0625 409.16015625 C-55.251875 409.13953125 -67.44125 409.11890625 -80 409.09765625 C-80 382.69765625 -80 356.29765625 -80 329.09765625 C-77.03 329.09765625 -74.06 329.09765625 -71 329.09765625 C-70.78085938 330.04382813 -70.56171875 330.99 -70.3359375 331.96484375 C-64.80100459 355.3030139 -57.941274 379.80571392 -36.640625 393.625 C-25.87875676 399.62681114 -13.40867948 401.35974863 -1.45703125 398.14453125 C7.79135699 394.51410804 12.7700259 390.45145223 17.01953125 381.40234375 C20.3772322 373.50973991 20.34971494 362.14729653 17.75 353.91015625 C14.29056405 345.5040502 8.36403614 338.49416811 0.8125 333.53515625 C0.18375977 333.11806396 -0.44498047 332.70097168 -1.09277344 332.27124023 C-8.45234296 327.56280009 -16.31297798 323.83482947 -24.14770508 319.99487305 C-68.64266801 298.12872181 -68.64266801 298.12872181 -77 278.09765625 C-77.391875 277.25203125 -77.78375 276.40640625 -78.1875 275.53515625 C-82.20502155 263.48259159 -80.97798181 249.35880895 -75.5234375 238.03125 C-66.36115572 221.31740721 -51.24507904 212.78077959 -34 206.09765625 C-34.57331055 205.92226318 -35.14662109 205.74687012 -35.73730469 205.56616211 C-57.66640327 198.77764152 -74.21527515 190.45056624 -85.9140625 169.703125 C-101.57276761 139.48515578 -103.85347254 100.6917695 -94.05029297 68.26904297 C-85.9314621 42.99911472 -71.16252034 21.70515787 -47.28515625 9.078125 C-32.00750713 1.40374346 -16.84735073 -0.06491874 0 0 Z " fill="#FDFEFE" transform="translate(166,83.90234375)"/>
<path d="M0 0 C13.86 0 27.72 0 42 0 C42.33 14.52 42.66 29.04 43 44 C45.64 41.69 48.28 39.38 51 37 C62.5679317 30.17302392 75.33238313 28.12577417 88.56640625 30.69140625 C95.40132727 32.58427546 100.84439759 35.10454267 106 40 C106.81210937 40.76957031 106.81210937 40.76957031 107.640625 41.5546875 C117.51159422 51.9740439 119.31600015 65.50928949 119.22705078 79.22094727 C119.22734283 80.41219711 119.22763489 81.60344696 119.22793579 82.83079529 C119.22678811 86.06989904 119.21681588 89.3088259 119.20278788 92.54789472 C119.19021392 95.94313097 119.1891048 99.33837137 119.18673706 102.73362732 C119.18054175 109.15073387 119.16415757 115.5677716 119.14403808 121.98484796 C119.1216181 129.29566964 119.11067037 136.60649476 119.10064721 143.91734231 C119.07978941 158.94493942 119.04313781 173.97244723 119 189 C104.81 189 90.62 189 76 189 C75.97812622 183.17142334 75.97812622 183.17142334 75.95581055 177.22509766 C75.90542666 164.37279545 75.83897366 151.5206182 75.76428509 138.66843605 C75.71940159 130.87776674 75.67996995 123.08714238 75.65356445 115.29638672 C75.63052385 108.50256191 75.59705866 101.70888025 75.55129844 94.91516912 C75.52744752 91.32101498 75.50866571 87.72700189 75.50238609 84.13277054 C75.49516398 80.11125918 75.464659 76.09023599 75.43237305 72.06884766 C75.43380814 70.88920441 75.43524323 69.70956116 75.4367218 68.49417114 C75.3482099 60.67526478 74.92797483 52.72651342 69.9375 46.375 C65.55044712 44.32148589 61.75267007 44.16810189 57 45 C50.40181938 47.65055119 46.79990465 51.97264796 43.91836548 58.42019653 C42.55942432 63.71737112 42.69124642 68.8910274 42.68115234 74.33935547 C42.67110672 75.57893509 42.6610611 76.81851471 42.65071106 78.09565735 C42.62517475 81.48159411 42.6082859 84.8673644 42.59528303 88.25335836 C42.57961693 91.79681218 42.55283786 95.34018186 42.5272522 98.88357544 C42.48052585 105.5875865 42.44375209 112.29161349 42.41057932 118.99570382 C42.37231443 126.63057443 42.32291575 134.26536041 42.27259517 141.9001596 C42.1693667 157.60005132 42.0815465 173.29997841 42 189 C28.14 189 14.28 189 0 189 C-0.33 176.13 -0.66 163.26 -1 150 C-3.475 154.455 -3.475 154.455 -6 159 C-16.65933161 173.95807665 -32.31363818 186.51414182 -50.6015625 190.578125 C-72.59130428 193.30788605 -93.20037189 190.1135439 -111.13671875 176.64453125 C-117.48208752 171.19946037 -121.97084409 165.29454326 -126 158 C-126.38671875 157.34644531 -126.7734375 156.69289063 -127.171875 156.01953125 C-137.50362189 137.38264935 -138.40714506 107.1716327 -133.5 86.5 C-127.565233 66.06266856 -115.26607615 48.08696533 -96.43481445 37.68481445 C-81.26519054 29.77102026 -62.47239224 27.96578077 -46 33 C-36.66020753 36.38024466 -30.16426276 42.42977587 -25.5 51.1875 C-22.80640217 58.09663883 -22.80999862 65.86515648 -24.84765625 72.9453125 C-27.53190019 79.04173095 -30.98995227 82.25836468 -37 85 C-37.928125 85.433125 -38.85625 85.86625 -39.8125 86.3125 C-48.00896391 88.08036476 -54.53064722 87.56189529 -61.8984375 83.43359375 C-65.67405018 80.8580364 -67.56987434 78.29037699 -69 74 C-69.90706735 66.35307776 -69.36967574 61.14798185 -64.66796875 54.9609375 C-63.17401663 53.20458161 -61.65380632 51.47593034 -60.125 49.75 C-57.81877392 47.2012655 -57.81877392 47.2012655 -57.5 44.25 C-57.81072879 41.62647138 -57.81072879 41.62647138 -61 40 C-64.06494006 39.64363422 -64.06494006 39.64363422 -67.4375 39.6875 C-68.57058594 39.67074219 -69.70367187 39.65398437 -70.87109375 39.63671875 C-74.26703713 40.03100431 -75.46861552 40.81459062 -78 43 C-78.66 43 -79.32 43 -80 43 C-81.37761976 45.73063917 -82.7208203 48.4717816 -84 51.25 C-84.33 51.95640625 -84.66 52.6628125 -85 53.390625 C-91.01980683 69.09855846 -90.3254721 87.08806908 -90.26074219 103.62158203 C-90.25003699 106.86379794 -90.26069416 110.10545717 -90.2734375 113.34765625 C-90.99137948 145.74632487 -90.99137948 145.74632487 -78.75 174.8125 C-70.61472269 181.28374332 -63.22351624 182.06590477 -53.10693359 181.26611328 C-39.77385611 179.5820977 -28.58960953 170.67689458 -20.125 160.74609375 C-2.76070458 138.30657227 -0.55814611 114.13593199 -0.48828125 86.71875 C-0.47140521 84.20812112 -0.45325112 81.69750054 -0.43388367 79.18688965 C-0.38669519 72.63090611 -0.35668515 66.07495624 -0.33044434 59.51885986 C-0.30206278 52.80807578 -0.25400506 46.09740735 -0.20898438 39.38671875 C-0.12330616 26.25786021 -0.05733332 13.12901294 0 0 Z " fill="#FEFEFE" transform="translate(532,304)"/>
<path d="M0 0 C1.51400391 0.01426025 1.51400391 0.01426025 3.05859375 0.02880859 C13.18622672 0.31140222 21.57918472 2.71047442 29.15625 9.8046875 C31.87921007 13.06354929 33.78739392 16.75179616 35.625 20.5625 C36.3984375 19.5415625 36.3984375 19.5415625 37.1875 18.5 C44.35965348 9.85663555 53.33352902 1.53246283 65.03149414 0.3112793 C77.7421091 -0.41357391 88.49901284 -0.20702348 99.625 6.5625 C100.27339844 6.95695312 100.92179688 7.35140625 101.58984375 7.7578125 C109.29831678 13.36754097 114.1313892 23.90000831 116.16551208 32.97354126 C116.82623237 38.13428167 116.75522157 43.24530738 116.73852539 48.44287109 C116.73867142 49.63368286 116.73881744 50.82449463 116.7389679 52.0513916 C116.73839214 55.30301607 116.73338966 58.55459706 116.72639394 61.8062129 C116.7201269 65.20948058 116.71955395 68.61274918 116.71836853 72.01602173 C116.71526508 78.45445295 116.707065 84.89286712 116.69701904 91.33129084 C116.68582726 98.66381531 116.68033973 105.9963406 116.67532361 113.32887149 C116.66488155 128.40675871 116.64654835 143.48462379 116.625 158.5625 C102.765 158.5625 88.905 158.5625 74.625 158.5625 C74.60312622 152.77150757 74.60312622 152.77150757 74.58081055 146.86352539 C74.53044343 134.09902632 74.46399371 121.3346533 74.38928509 108.57027531 C74.34438697 100.83226448 74.30495864 93.09429907 74.27856445 85.35620117 C74.25553575 78.60889698 74.22208367 71.86173721 74.17629844 65.11454767 C74.15243158 61.54445844 74.13366015 57.97451165 74.12738609 54.40434456 C74.12017317 50.41136563 74.08968188 46.4188802 74.05737305 42.42602539 C74.05880814 41.2521376 74.06024323 40.07824982 74.0617218 38.86878967 C73.97030542 30.86467945 73.38281556 23.87187867 68.125 17.5625 C64.06342956 14.31324364 60.71738445 14.06160973 55.625 14.5625 C49.17282061 16.96217203 46.34789653 20.9602838 43.53515625 27.0625 C41.98049395 31.33281704 41.49889881 35.34276791 41.46678162 39.87129211 C41.4569928 40.92152054 41.44720398 41.97174896 41.43711853 43.05380249 C41.43136307 44.19531769 41.4256076 45.33683289 41.41967773 46.51293945 C41.40977814 47.72311234 41.39987854 48.93328522 41.38967896 50.18013 C41.36354255 53.4896404 41.34165944 56.79912734 41.32167697 60.10867715 C41.29976495 63.57070233 41.27240185 67.03268436 41.24562073 70.49467468 C41.19576423 77.04643847 41.15079936 83.5982263 41.10759836 90.15003699 C41.05816569 97.61074078 41.00326998 105.07140126 40.94791877 112.53206313 C40.83420687 127.87550355 40.72806559 143.21898381 40.625 158.5625 C26.765 158.5625 12.905 158.5625 -1.375 158.5625 C-1.38958252 154.57019287 -1.40416504 150.57788574 -1.41918945 146.46459961 C-1.46951656 133.27700143 -1.53595837 120.0895258 -1.61071491 106.90204525 C-1.65564796 98.9061458 -1.69506834 90.91029064 -1.72143555 82.91430664 C-1.74443585 75.94362129 -1.77785649 68.97307641 -1.82370156 62.0025025 C-1.84760652 58.31286997 -1.8663531 54.6233763 -1.87261391 50.93366814 C-1.87980493 46.81096513 -1.91026338 42.68874439 -1.94262695 38.56616211 C-1.94119186 37.34768082 -1.93975677 36.12919952 -1.9382782 34.87379456 C-2.01641324 27.83994602 -2.3399847 22.35626912 -6.875 16.6875 C-10.43099504 14.02050372 -14.12355874 14.14432545 -18.375 14.5625 C-24.26898109 17.21259225 -28.68528142 20.95820886 -31.45915794 26.87508678 C-32.44604345 29.7709673 -32.63563904 32.00854823 -32.6534729 35.06111145 C-32.66463638 36.15341064 -32.67579987 37.24570984 -32.68730164 38.37110901 C-32.68946182 39.5593779 -32.69162201 40.74764679 -32.69384766 41.97192383 C-32.70891609 43.86033493 -32.70891609 43.86033493 -32.72428894 45.78689575 C-32.75154685 49.23069184 -32.76672578 52.67444712 -32.77971697 56.11832261 C-32.79536599 59.72050539 -32.82215055 63.32260505 -32.8477478 66.92472839 C-32.89450428 73.74210428 -32.9312635 80.55949585 -32.96442068 87.37694997 C-33.00266422 95.13996839 -33.05206852 102.90290327 -33.10240483 110.66585124 C-33.20567813 126.6313465 -33.29348018 142.59687659 -33.375 158.5625 C-47.235 158.5625 -61.095 158.5625 -75.375 158.5625 C-75.375 107.4125 -75.375 56.2625 -75.375 3.5625 C-62.835 3.5625 -50.295 3.5625 -37.375 3.5625 C-36.88 10.9875 -36.88 10.9875 -36.375 18.5625 C-35.75625 17.551875 -35.1375 16.54125 -34.5 15.5 C-26.4706685 4.32678941 -13.23732746 -0.20103418 0 0 Z " fill="#FEFEFE" transform="translate(719.375,116.4375)"/>
<path d="M0 0 C14.52 0 29.04 0 44 0 C44 62.37 44 124.74 44 189 C30.47 189 16.94 189 3 189 C2.67 184.38 2.34 179.76 2 175 C1.319375 176.051875 0.63875 177.10375 -0.0625 178.1875 C-4.59229035 184.48594445 -10.50911073 187.98646409 -18 190 C-31.05265313 191.65739931 -44.0212434 191.11552261 -54.7265625 182.91015625 C-57.27918187 180.70767493 -59.64872549 178.41459429 -62 176 C-62.56332031 175.46890625 -63.12664062 174.9378125 -63.70703125 174.390625 C-76.24072694 161.55929537 -81.88823222 137.26812197 -82 120 C-82.04891713 118.22003655 -82.09845496 116.4400901 -82.1484375 114.66015625 C-82.67687759 89.77186671 -77.7809453 64.87779266 -60.24389648 46.14550781 C-50.90413405 36.58295625 -39.72826244 30.930279 -26.3125 30.75 C-17.0667273 30.8467131 -10.16710545 32.22665308 -3.27734375 38.59765625 C-2 40 -2 40 -1 42 C-0.67 28.14 -0.34 14.28 0 0 Z " fill="#FCFDFE" transform="translate(559,87)"/>
<path d="M0 0 C11.17673328 8.56830189 19.10651585 19.79258616 24 33 C24.40992188 34.06927734 24.40992188 34.06927734 24.828125 35.16015625 C28.71376902 45.95996096 29.31842011 56.59664911 29.25 68 C29.25773438 69.2890625 29.26546875 70.578125 29.2734375 71.90625 C29.22889478 93.82126937 22.89201991 114.84962928 7.5625 130.9375 C-5.81020191 143.42950404 -22.01220926 150.83113404 -40.4921875 150.34375 C-55.90173698 148.83368279 -69.2880265 140.82259629 -80 130 C-80.69738281 129.33613281 -81.39476562 128.67226563 -82.11328125 127.98828125 C-98.57298952 111.20896699 -102.4154279 86.51503002 -102.3684082 64.03613281 C-101.9528264 42.37159916 -93.66573328 21.33947054 -78.9375 5.3125 C-56.23401722 -16.17960935 -25.33609319 -17.54913801 0 0 Z " fill="#FDFEFE" transform="translate(347,129)"/>
<path d="M0 0 C8.08893851 9.27268561 9.60828544 20.92850332 9.45410156 32.85864258 C9.45468567 34.06998367 9.45526978 35.28132477 9.45587158 36.52937317 C9.45358579 39.80564195 9.43372612 43.08119943 9.40557575 46.35732865 C9.38032591 49.79789445 9.37820175 53.23847877 9.37347412 56.67912292 C9.36111279 63.17410965 9.32838556 69.66882244 9.28807616 76.16368932 C9.24314336 83.56647126 9.22131774 90.96926729 9.20129442 98.37215197 C9.15964541 113.58161166 9.08638052 128.79071621 9 144 C-4.53 144 -18.06 144 -32 144 C-32.33 139.38 -32.66 134.76 -33 130 C-33.99 131.381875 -34.98 132.76375 -36 134.1875 C-42.84701294 142.87218043 -51.23813288 145.93850949 -62 148 C-75.25443451 149.19889357 -86.27168362 147.04623728 -97 139 C-105.01505874 131.66207553 -109.49524244 123.52664106 -110.14086914 112.62036133 C-110.24279743 109.82946756 -110.28419692 107.04257045 -110.3125 104.25 C-110.35600586 102.84234375 -110.35600586 102.84234375 -110.40039062 101.40625 C-110.49490428 90.8788829 -106.79365609 82.32628454 -99.75 74.5 C-87.64387994 63.49443631 -72.7177874 57.88725986 -57.65185547 52.11962891 C-45.16208901 48.2071285 -45.16208901 48.2071285 -36 40 C-35.86439628 37.21441913 -35.78728785 34.45507082 -35.76171875 31.66796875 C-35.74961113 30.42482658 -35.74961113 30.42482658 -35.73725891 29.15657043 C-35.72341779 27.40054415 -35.71269576 25.64449096 -35.70483398 23.88842773 C-35.68763349 21.20829991 -35.64375074 18.52940972 -35.59960938 15.84960938 C-35.58948121 14.14323824 -35.58096549 12.43685661 -35.57421875 10.73046875 C-35.54795662 9.53178413 -35.54795662 9.53178413 -35.52116394 8.30888367 C-35.53647929 4.36192438 -35.71281191 2.45356298 -37.87744141 -0.96508789 C-42.61656888 -5.5085233 -47.70525754 -5.42103322 -53.9765625 -5.328125 C-58.44854272 -4.84279381 -61.22678733 -3.42055153 -65 -1 C-66.47896861 1.95793723 -66.4355582 3.70220224 -66 7 C-64.6402452 8.9371276 -63.1563375 10.59275417 -61.5078125 12.2890625 C-58.37237315 15.84689264 -57.53508012 19.00988589 -57.6953125 23.78125 C-58.38466079 28.80111958 -60.00805563 33.28153979 -63.90625 36.64453125 C-71.97333381 41.86706499 -81.13233794 42.25640949 -90.51953125 40.5390625 C-95.63913631 38.87494613 -98.07316589 36.30416781 -101 32 C-103.82933732 25.93142137 -104.20504969 19.70660373 -102.125 13.30859375 C-96.18705182 0.51465936 -84.82520665 -5.97026889 -72.08984375 -10.96484375 C-49.20552253 -18.63152532 -18.65656049 -16.02269312 0 0 Z " fill="#FDFDFE" transform="translate(975,131)"/>
<path d="M0 0 C2.00998444 -0.00217635 4.01940994 -0.0203408 6.02929688 -0.03930664 C21.31611346 -0.06214551 33.85299277 2.07579048 45.15039062 12.96655273 C53.85443459 22.03792332 54.73433438 32.91696255 54.61987305 45.00048828 C54.62053017 46.84632256 54.62053017 46.84632256 54.62120056 48.72944641 C54.61948213 52.06775624 54.60455162 55.4054931 54.58347869 58.7437017 C54.56458459 62.24568694 54.56295151 65.74768173 54.55940247 69.24971008 C54.55011907 75.86511868 54.52555615 82.48037659 54.495354 89.09571916 C54.46169379 96.63389895 54.44529492 104.17208636 54.43026769 111.71032274 C54.39900271 127.20208457 54.34403776 142.69363913 54.27929688 158.18530273 C41.07929688 158.18530273 27.87929688 158.18530273 14.27929688 158.18530273 C13.94929688 153.56530273 13.61929688 148.94530273 13.27929688 144.18530273 C12.37179687 145.38155273 11.46429688 146.57780273 10.52929688 147.81030273 C4.29332468 154.95885622 -5.72086059 159.5562136 -15.16015625 160.40454102 C-29.33298879 161.02401925 -41.41317608 160.72830401 -52.71679688 151.22436523 C-61.10927734 142.68464827 -63.96740642 131.8806676 -64.03320312 120.18530273 C-63.83256798 106.81171635 -61.3708712 97.13334184 -52.22070312 87.06030273 C-41.78384154 77.42914322 -27.63636062 72.33281458 -14.72070312 66.93530273 C-12.23545596 65.89321155 -9.75147442 64.84844791 -7.27050781 63.79620361 C-5.74378931 63.14893398 -4.21463339 62.5073705 -2.68261719 61.8727417 C2.82026877 59.54367774 7.87499853 57.29175025 11.27929688 52.18530273 C11.48683233 49.64156367 11.58334687 47.2100279 11.58007812 44.66577148 C11.58650581 43.56148552 11.58650581 43.56148552 11.59306335 42.43489075 C11.5988034 40.87733996 11.5993093 39.31976236 11.5949707 37.76220703 C11.59182197 35.39169874 11.61523276 33.0224526 11.640625 30.65209961 C11.64289933 29.13582513 11.64360087 27.61954732 11.64257812 26.10327148 C11.65178787 25.39994186 11.66099762 24.69661224 11.67048645 23.9719696 C11.62719903 19.31180015 10.71735145 16.14903374 8.27929688 12.18530273 C4.11165382 8.60656576 0.01280058 8.72895294 -5.22070312 8.81030273 C-5.96707031 8.79870117 -6.7134375 8.78709961 -7.48242188 8.77514648 C-12.03604066 8.79932499 -15.01708276 9.26514052 -18.72070312 12.18530273 C-20.23886671 15.2216299 -20.21677964 16.77477673 -19.72070312 20.18530273 C-18.07764493 22.68560869 -16.27582748 24.9440641 -14.34960938 27.23217773 C-10.9812003 31.27103754 -11.27124937 35.11646319 -11.72070312 40.18530273 C-13.365521 45.668029 -15.80197352 49.24698067 -20.72070312 52.18530273 C-27.64086356 55.54421102 -35.52015581 56.69166816 -42.98632812 54.52905273 C-49.00679151 51.86350406 -52.96001164 47.38655999 -56.09570312 41.68530273 C-57.72833587 35.15477177 -56.74547298 29.10921303 -53.72070312 23.18530273 C-44.54677076 10.30233965 -31.16616228 3.63000478 -15.92797852 0.63671875 C-10.6324206 -0.10861783 -5.33988876 -0.00064616 0 0 Z " fill="#FDFEFE" transform="translate(313.720703125,334.814697265625)"/>
<path d="M0 0 C9.20606951 5.46069423 15.836292 13.5393376 18.82127857 23.83184338 C20.6929371 31.50792572 21.41965923 38.6068517 21.34057617 46.49145508 C21.34123329 48.2499453 21.34123329 48.2499453 21.34190369 50.04396057 C21.33983514 53.86932793 21.31659574 57.69424168 21.29296875 61.51953125 C21.2873659 64.19138835 21.28295125 66.86322123 21.28010559 69.53507996 C21.27083716 75.817516 21.24629513 82.09979262 21.21605712 88.38215894 C21.18234955 95.54312379 21.16598629 102.70409686 21.15097082 109.86512148 C21.11973989 124.57683986 21.06479423 139.28838765 21 154 C6.48 154 -8.04 154 -23 154 C-23.0093457 149.98263672 -23.01869141 145.96527344 -23.02832031 141.82617188 C-23.06209194 128.55075324 -23.11744142 115.27549807 -23.18390274 102.00020599 C-23.22367056 93.95163143 -23.25607447 85.90315433 -23.27099609 77.85449219 C-23.28402437 70.8372576 -23.31101885 63.82023765 -23.35461307 56.80312395 C-23.3772017 53.08938411 -23.39291226 49.37590874 -23.39188385 45.66209412 C-23.39099646 41.51075513 -23.42129648 37.36019393 -23.45410156 33.20898438 C-23.4490712 31.98474762 -23.44404083 30.76051086 -23.43885803 29.49917603 C-23.52376156 22.55146766 -24.20563545 17.88685551 -28 12 C-31.8504907 9.4330062 -36.49267158 9.20997011 -41 10 C-47.30891831 12.5026152 -51.28165722 16.8399786 -54 23 C-54.83754959 26.51001804 -55.13306906 29.78118166 -55.15821838 33.38471985 C-55.17290161 34.98530495 -55.17290161 34.98530495 -55.18788147 36.6182251 C-55.19363693 37.77844177 -55.1993924 38.93865845 -55.20532227 40.1340332 C-55.21522186 41.36371323 -55.22512146 42.59339325 -55.23532104 43.8603363 C-55.26145971 47.22356408 -55.28334191 50.58676875 -55.30332303 53.95003533 C-55.32523325 57.46811455 -55.35259724 60.98615127 -55.37937927 64.50419617 C-55.4292382 71.16220822 -55.47420217 77.82024395 -55.51740164 84.47830218 C-55.56683223 92.05992222 -55.62172872 99.64149961 -55.67708123 107.22307837 C-55.79079686 122.81534764 -55.89693696 138.40765613 -56 154 C-69.86 154 -83.72 154 -98 154 C-98 102.85 -98 51.7 -98 -1 C-85.13 -1 -72.26 -1 -59 -1 C-58.505 6.425 -58.505 6.425 -58 14 C-56.72125 12.47375 -55.4425 10.9475 -54.125 9.375 C-40.8010866 -5.4386738 -17.9026517 -9.2520904 0 0 Z " fill="#FDFEFE" transform="translate(1122,121)"/>
<path d="M0 0 C1.27605103 0.0028299 2.55210205 0.00565979 3.86682129 0.00857544 C7.23372059 0.01783253 10.60034082 0.03575288 13.96716309 0.0579834 C17.4129798 0.07856578 20.85882637 0.08771362 24.3046875 0.09765625 C31.04703038 0.11794007 37.78888978 0.15710013 44.53125 0.1953125 C44.53125 13.7253125 44.53125 27.2553125 44.53125 41.1953125 C41.89125 41.1953125 39.25125 41.1953125 36.53125 41.1953125 C36.23992187 40.44507813 35.94859375 39.69484375 35.6484375 38.921875 C30.85079169 26.94284742 25.77589759 15.93178515 13.6171875 10.14453125 C4.87966186 7.4569126 -4.34466797 8.14322747 -12.46875 12.1953125 C-15.89303615 14.55426518 -17.95769419 16.32859326 -19.46875 20.1953125 C-20.31369623 26.7192723 -20.65468998 33.29334966 -17.15625 39.0703125 C-8.94203224 49.2911999 3.50688172 54.46812956 14.90625 60.3046875 C47.88875505 77.19225851 47.88875505 77.19225851 53.53125 94.1953125 C56.19446078 108.85156278 55.39368757 122.90624707 46.796875 135.46484375 C46.37921875 136.03589844 45.9615625 136.60695313 45.53125 137.1953125 C44.809375 138.2059375 44.0875 139.2165625 43.34375 140.2578125 C34.11665415 150.80306491 18.06298218 157.34351565 4.27079773 158.45901489 C0.69388667 158.53978546 -2.87171273 158.53337437 -6.44921875 158.48828125 C-7.59797485 158.48526001 -8.74673096 158.48223877 -9.93029785 158.47912598 C-14.17237487 158.46357183 -18.41432261 158.42168928 -22.65625 158.3828125 C-32.164375 158.3209375 -41.6725 158.2590625 -51.46875 158.1953125 C-51.46875 139.0553125 -51.46875 119.9153125 -51.46875 100.1953125 C-48.82875 100.1953125 -46.18875 100.1953125 -43.46875 100.1953125 C-43.20578125 101.14792969 -42.9428125 102.10054688 -42.671875 103.08203125 C-35.54067333 128.28214448 -35.54067333 128.28214448 -17.42578125 146.125 C-10.20415517 150.07455199 -2.42508745 150.26886419 5.54296875 148.54296875 C11.89355675 146.52429616 16.02954529 143.92192707 19.53125 138.1953125 C22.68671066 132.02782121 22.73437976 123.98194857 20.65625 117.44140625 C14.0271352 103.15828061 -0.38062695 96.53113681 -13.41650391 89.02587891 C-46.33335647 70.06087502 -46.33335647 70.06087502 -52.71875 52.8203125 C-54.93585273 42.10431595 -53.12487664 31.40858111 -47.71875 21.8828125 C-40.29900293 10.64565933 -29.06698216 3.7369737 -15.93992615 0.59413147 C-10.66830935 -0.25664591 -5.32505612 -0.04478472 0 0 Z " fill="#FDFEFE" transform="translate(736.46875,334.8046875)"/>
<path d="M0 0 C14.19 0 28.38 0 43 0 C43 61.71 43 123.42 43 187 C28.81 187 14.62 187 0 187 C0 125.29 0 63.58 0 0 Z " fill="#FEFEFE" transform="translate(405,88)"/>
<path d="M0 0 C7.3559966 5.30316034 10.10389849 11.07388866 11.6875 19.9375 C12.98869836 28.85878411 12.87051297 37.80227556 12.890625 46.796875 C12.89486607 48.08563412 12.89486607 48.08563412 12.89919281 49.40042877 C12.91413214 53.95689697 12.92339197 58.51333399 12.92773438 63.06982422 C12.93210182 66.79355766 12.94593312 70.51705716 12.96875 74.24072266 C13.18271639 109.92294995 13.18271639 109.92294995 11.421875 122.515625 C11.31353333 123.29218445 11.20519165 124.0687439 11.09356689 124.86883545 C10.02451108 131.09716278 7.82288426 136.80211574 3.3125 141.3125 C-1.85878968 144.51377457 -7.2352776 146.0186538 -13.3125 144.9375 C-17.87571959 143.15369598 -21.2486338 140.70305859 -23.625 136.375 C-29.83594646 121.7270599 -29.47919359 105.9128983 -29.515625 90.30078125 C-29.51845238 89.47246481 -29.52127975 88.64414837 -29.52419281 87.79073143 C-29.53908249 83.40744089 -29.54837652 79.02418241 -29.55273438 74.64086914 C-29.55820638 70.16771177 -29.58223735 65.69486064 -29.61070633 61.2217989 C-29.6295314 57.7323069 -29.63454872 54.24288584 -29.63607025 50.7533474 C-29.63905233 49.1066845 -29.64692537 47.46002145 -29.66025543 45.81340981 C-29.90958608 12.65176479 -29.90958608 12.65176479 -20.79296875 3.39453125 C-14.57806795 -2.00381324 -7.79616579 -2.50065695 0 0 Z " fill="#7499C6" transform="translate(319.3125,126.0625)"/>
<path d="M0 0 C7.12002662 3.6969369 10.61844462 8.95789104 13.06030273 16.42114258 C17.53811713 33.47499584 16.34462568 52.17113223 16.31567383 69.68261719 C16.30985493 73.49654663 16.32692343 77.30999424 16.3500185 81.12384415 C16.36491606 84.12004275 16.36560674 87.116129 16.36250877 90.11235809 C16.36301269 91.51701572 16.36806935 92.92168127 16.37832069 94.32630157 C16.47224766 108.96966425 15.64920562 125.33324078 5.40625 136.78125 C1.48527053 140.11038351 -2.49580376 140.85089975 -7.57421875 140.51953125 C-12.01114717 139.56927122 -14.43655631 137.72449453 -17 134 C-22.86246893 121.52892973 -23.16087971 109.49883407 -23.16796875 95.984375 C-23.17119319 94.52296925 -23.17455809 93.06156381 -23.17805481 91.60015869 C-23.18401895 88.54072322 -23.18589788 85.48131586 -23.18530273 82.421875 C-23.18522199 79.32871589 -23.19208486 76.23570649 -23.20581055 73.14257812 C-23.45959914 15.04438689 -23.45959914 15.04438689 -13 3 C-9.05568058 -0.28693285 -4.9920295 -0.88267712 0 0 Z " fill="#7399C6" transform="translate(544,127)"/>
<path d="M0 0 C0.07663849 7.5947415 0.1288449 15.1893817 0.16479492 22.78442383 C0.17979647 25.36323778 0.20020427 27.94202659 0.22631836 30.52075195 C0.26308314 34.24697103 0.27981339 37.97285013 0.29296875 41.69921875 C0.30845261 42.8351799 0.32393646 43.97114105 0.33988953 45.14152527 C0.34226927 56.6956876 -1.58062176 68.17210233 -8 78 C-10.5625 80.5 -10.5625 80.5 -13 82 C-13.598125 82.4125 -14.19625 82.825 -14.8125 83.25 C-18.24424509 84.42659832 -21.46109794 84.64727433 -25 84 C-28.13866451 82.02127672 -29.59142884 80.40648192 -30.63623047 76.80981445 C-32.12459477 68.85197631 -32.29848577 61.08096246 -32.25 53 C-32.25773437 51.7109375 -32.26546875 50.421875 -32.2734375 49.09375 C-32.24852739 36.83797544 -31.55522833 24.59325798 -23.19921875 14.9140625 C-18.65453631 10.58334816 -6.68009427 0 0 0 Z " fill="#759BC7" transform="translate(326,399)"/>
<path d="M0 0 C0.04655738 7.27641172 0.08198717 14.55279076 0.10362434 21.82932186 C0.11401463 25.20894103 0.12808566 28.58845749 0.15087891 31.96801758 C0.17525279 35.86282011 0.18651203 39.75747862 0.1953125 43.65234375 C0.20563507 44.8526976 0.21595764 46.05305145 0.22659302 47.28977966 C0.22797441 57.71916493 -0.8578052 69.38478064 -7.5 77.9296875 C-11.12969231 81.44175089 -14.72040706 83.10745677 -19.78515625 83.3671875 C-23.86133366 82.69141911 -26.53669238 80.2070764 -29 77 C-31.07409336 72.84661505 -31.29274568 69.05314365 -31.265625 64.49609375 C-31.26753845 63.77696304 -31.2694519 63.05783234 -31.27142334 62.31690979 C-31.27278057 60.79647471 -31.26911645 59.27602786 -31.26074219 57.75561523 C-31.25014579 55.46896109 -31.26059544 53.18311248 -31.2734375 50.89648438 C-31.28702147 37.84575412 -31.15929607 24.25603929 -22.1640625 13.8828125 C-17.72496305 9.64173979 -6.61665283 0 0 0 Z " fill="#7499C6" transform="translate(940,183)"/>
</svg>
