<?xml version="1.0" encoding="UTF-8"?>
<svg version="1.1" xmlns="http://www.w3.org/2000/svg" width="320" height="320">
<path d="M0 0 C4.21430551 3.3879711 6.2538652 6.53447811 6.875 11.9375 C6.91625 13.278125 6.9575 14.61875 7 16 C2.71 16 -1.58 16 -6 16 C-6.474375 15.030625 -6.94875 14.06125 -7.4375 13.0625 C-8.70193947 10.19522563 -8.70193947 10.19522563 -10 9 C-12.03270562 8.76179079 -12.03270562 8.76179079 -14.375 8.75 C-15.16648437 8.72421875 -15.95796875 8.6984375 -16.7734375 8.671875 C-19.03921088 8.85610271 -19.03921088 8.85610271 -20.8515625 10.140625 C-22.31604607 12.09165001 -22.31604607 12.09165001 -21.6875 15.1875 C-21.460625 16.115625 -21.23375 17.04375 -21 18 C-20.17757812 18.24234375 -19.35515625 18.4846875 -18.5078125 18.734375 C4.53201414 25.65164397 4.53201414 25.65164397 8.3125 32.3125 C9.91723184 38.58554265 9.17000061 43.37580538 6 49 C1.19859748 54.16891728 -3.44842459 56.99369015 -10.58203125 57.3359375 C-12.32540713 57.35972883 -14.06896368 57.37243409 -15.8125 57.375 C-16.67681641 57.39949219 -17.54113281 57.42398438 -18.43164062 57.44921875 C-24.44893133 57.47646686 -28.98877321 56.42507368 -34 53 C-37.53477183 49.28848958 -38.22189115 46.60026725 -38.25 41.625 C-38.12625 39.335625 -38.12625 39.335625 -38 37 C-33.71 37 -29.42 37 -25 37 C-24.28385417 39.05078125 -23.56770833 41.1015625 -22.8515625 43.15234375 C-22.14728587 45.18682116 -22.14728587 45.18682116 -20 46 C-18.54420413 46.09555417 -17.0839204 46.12984691 -15.625 46.125 C-14.85414062 46.12757813 -14.08328125 46.13015625 -13.2890625 46.1328125 C-11.0671811 46.00389788 -9.13381492 45.61383717 -7 45 C-6.58274322 41.62599422 -6.58274322 41.62599422 -7 38 C-11.38456165 34.58038049 -16.7614862 33.44324332 -22.02929688 31.98242188 C-27.47301488 30.38800589 -31.80390939 28.23787669 -35.84765625 24.1171875 C-38.20942545 19.77793698 -37.56406774 14.77534618 -37 10 C-34.43116767 4.34856887 -29.85726067 0.54771582 -24.12109375 -1.75390625 C-16.24958579 -4.02789744 -7.19069654 -4.32673603 0 0 Z " fill="#004B85" transform="translate(54,176)"/>
<path d="M0 0 C4.29 0 8.58 0 13 0 C14.83219646 1.83219646 14.23901328 4.75713741 14.31640625 7.22265625 C14.35830078 8.48271484 14.40019531 9.74277344 14.44335938 11.04101562 C14.48317596 12.38150736 14.52288814 13.7220022 14.5625 15.0625 C14.60568042 16.40691523 14.64929456 17.7513166 14.69335938 19.09570312 C14.79985358 22.3970234 14.9018646 25.69842236 15 29 C15.56589844 28.21753906 16.13179688 27.43507812 16.71484375 26.62890625 C17.44832031 25.61699219 18.18179687 24.60507813 18.9375 23.5625 C19.66839844 22.55316406 20.39929688 21.54382813 21.15234375 20.50390625 C23 18 23 18 24 17 C26.35313555 16.92728259 28.70833668 16.91629132 31.0625 16.9375 C32.35285156 16.94652344 33.64320313 16.95554688 34.97265625 16.96484375 C35.97167969 16.97644531 36.97070312 16.98804688 38 17 C36.46906512 21.67199091 33.89242605 25.02170005 30.875 28.8125 C30.17310547 29.7087207 30.17310547 29.7087207 29.45703125 30.62304688 C28.30994435 32.08616792 27.15568766 33.54366297 26 35 C29.75229187 41.56096005 33.5422739 48.00313599 37.93359375 54.16015625 C39 56 39 56 39 59 C34.05 59 29.1 59 24 59 C21.03 53.72 18.06 48.44 15 43 C14.71084731 47.89118777 14.71084731 47.89118777 14.43188477 52.78295898 C14.11111111 57.88888889 14.11111111 57.88888889 13 59 C8.71 59 4.42 59 0 59 C0 39.53 0 20.06 0 0 Z " fill="#004B85" transform="translate(242,174)"/>
<path d="M0 0 C4.5357128 3.88775383 7.29224878 7.36368212 8.625 13.25 C8.625 16.55 8.625 19.85 8.625 23.25 C0.045 23.25 -8.535 23.25 -17.375 23.25 C-16.385 25.56 -15.395 27.87 -14.375 30.25 C-11.00063814 30.58380814 -11.00063814 30.58380814 -7.375 30.25 C-6.9315625 29.59 -6.488125 28.93 -6.03125 28.25 C-4.375 26.25 -4.375 26.25 -1.45703125 25.859375 C-0.37808594 25.90578125 0.70085937 25.9521875 1.8125 26 C2.89917969 26.03609375 3.98585937 26.0721875 5.10546875 26.109375 C6.35263672 26.17898437 6.35263672 26.17898437 7.625 26.25 C7.23604749 31.69533513 5.4101047 34.37686961 1.625 38.25 C-2.13401732 40.86884145 -6.27418955 40.61737111 -10.6875 40.625 C-11.42162109 40.64949219 -12.15574219 40.67398438 -12.91210938 40.69921875 C-18.52906073 40.72912266 -21.75735308 39.46202358 -26.375 36.25 C-31.19334944 30.29046254 -31.57155819 23.76388346 -31.375 16.25 C-30.6704167 10.34297028 -28.97793122 6.3578147 -24.625 2.25 C-17.1436076 -3.51747342 -8.39965371 -4.355376 0 0 Z M-16.25 9.125 C-17.53096257 11.1438588 -17.53096257 11.1438588 -17.375 13.25 C-13.415 13.25 -9.455 13.25 -5.375 13.25 C-6.00341973 9.2785831 -6.00341973 9.2785831 -8.375 7.25 C-12.79245024 6.64877415 -12.79245024 6.64877415 -16.25 9.125 Z " fill="#004B85" transform="translate(230.375,192.75)"/>
<path d="M0 0 C5.55990948 5.27924097 8.01781979 10.15437863 8.3125 17.875 C8.15923176 24.24521124 6.75235037 28.92484824 2.625 33.8125 C-2.54224387 38.11853656 -6.20063173 39.4875939 -12.9375 39.375 C-13.97293945 39.39240234 -13.97293945 39.39240234 -15.02929688 39.41015625 C-20.61666648 39.37837974 -24.55956967 38.05976491 -28.828125 34.45703125 C-34.0085946 28.46533427 -35.28524401 23.36770816 -34.9375 15.5 C-34.14097188 8.7435674 -31.3600833 4.42386934 -26.6875 -0.375 C-18.58011802 -5.27713794 -7.92083501 -5.40056932 0 0 Z M-18.3125 7.75 C-21.65370965 12.2049462 -21.54956438 17.61613199 -21 23 C-19.47797806 26.80839283 -19.47797806 26.80839283 -17 30 C-12.2970309 30.48118161 -12.2970309 30.48118161 -8.125 28.6875 C-5.85350973 25.28026459 -5.8095305 22.10362208 -5.75 18.125 C-5.72421875 17.09632813 -5.6984375 16.06765625 -5.671875 15.0078125 C-6.0751408 11.31120932 -7.35228721 8.64771279 -10 6 C-13.62037896 5.59773567 -15.35949717 5.51529516 -18.3125 7.75 Z " fill="#004B85" transform="translate(102,194)"/>
<path d="M0 0 C1 1 1 1 1.09765625 3.06640625 C1.08605469 3.89011719 1.07445312 4.71382812 1.0625 5.5625 C1.05347656 6.38878906 1.04445312 7.21507812 1.03515625 8.06640625 C1.02355469 8.70449219 1.01195312 9.34257812 1 10 C-0.98 10.33 -2.96 10.66 -5 11 C-5.66 13.31 -6.32 15.62 -7 18 C-5.5459375 17.9690625 -5.5459375 17.9690625 -4.0625 17.9375 C-1 18 -1 18 0 19 C0.07179964 20.51928038 0.08392007 22.04167482 0.0625 23.5625 C0.05347656 24.38878906 0.04445312 25.21507812 0.03515625 26.06640625 C0.02355469 26.70449219 0.01195312 27.34257812 0 28 C-2.31 28 -4.62 28 -7 28 C-7 38.56 -7 49.12 -7 60 C-11.29 60 -15.58 60 -20 60 C-20 49.44 -20 38.88 -20 28 C-21.98 28 -23.96 28 -26 28 C-26.02689216 26.52093108 -26.04634621 25.04172517 -26.0625 23.5625 C-26.07410156 22.73878906 -26.08570312 21.91507813 -26.09765625 21.06640625 C-26 19 -26 19 -25 18 C-23.33382885 17.95936168 -21.66611905 17.957279 -20 18 C-20.03480469 17.41992188 -20.06960937 16.83984375 -20.10546875 16.2421875 C-20.28415171 11.08590769 -20.17886091 7.30684381 -17 3 C-11.5555938 -0.33330992 -6.30256501 -0.62784172 0 0 Z " fill="#004B85" transform="translate(135,173)"/>
<path d="M0 0 C0 3.63 0 7.26 0 11 C1.299375 10.979375 2.59875 10.95875 3.9375 10.9375 C5.29165633 10.91600546 6.64756083 10.92851801 8 11 C9 12 9 12 9.09765625 14.06640625 C9.06510417 16.37760417 9.03255208 18.68880208 9 21 C6.03 21 3.06 21 0 21 C0.33 28.26 0.66 35.52 1 43 C3.64 43.33 6.28 43.66 9 44 C9.09765625 50.15234375 9.09765625 50.15234375 9 52 C6.95871653 54.04128347 3.03647677 53.32103654 0.25 53.375 C-0.82507813 53.43107422 -0.82507813 53.43107422 -1.921875 53.48828125 C-5.73836542 53.55142172 -7.78615695 53.14652209 -10.953125 50.9765625 C-13.46590312 47.3224844 -13.89965474 44.311979 -14 40 C-14.0311792 38.84757812 -14.0311792 38.84757812 -14.06298828 37.671875 C-14.09767716 35.27980818 -14.08782394 32.89213846 -14.0625 30.5 C-14.05798828 29.67757812 -14.05347656 28.85515625 -14.04882812 28.0078125 C-14.03718489 26.00517604 -14.01925556 24.00257773 -14 22 C-16.31 21.67 -18.62 21.34 -21 21 C-21.02689216 19.52093108 -21.04634621 18.04172517 -21.0625 16.5625 C-21.07410156 15.73878906 -21.08570313 14.91507813 -21.09765625 14.06640625 C-21 12 -21 12 -20 11 C-18.00041636 10.95919217 -15.99954746 10.95745644 -14 11 C-14.103125 10.071875 -14.20625 9.14375 -14.3125 8.1875 C-14.209375 7.135625 -14.10625 6.08375 -14 5 C-11.8125 3.25 -11.8125 3.25 -9 2 C-8.154375 1.608125 -7.30875 1.21625 -6.4375 0.8125 C-4 0 -4 0 0 0 Z " fill="#004B85" transform="translate(190,180)"/>
<path d="M0 0 C0 3.63 0 7.26 0 11 C1.299375 10.979375 2.59875 10.95875 3.9375 10.9375 C5.29165633 10.91600546 6.64756083 10.92851801 8 11 C9 12 9 12 9.09765625 14.06640625 C9.06510417 16.37760417 9.03255208 18.68880208 9 21 C6.03 21 3.06 21 0 21 C0.33 28.26 0.66 35.52 1 43 C3.64 43.33 6.28 43.66 9 44 C9.09765625 50.15234375 9.09765625 50.15234375 9 52 C6.9656764 54.0343236 2.97053586 53.23052118 0.1875 53.25 C-0.53759766 53.270625 -1.26269531 53.29125 -2.00976562 53.3125 C-5.23973619 53.33614114 -7.58276078 53.22625412 -10.44921875 51.671875 C-13.41994819 48.46917424 -13.11789311 45.16808662 -13.09765625 41.01953125 C-13.09443359 39.85615234 -13.09121094 38.69277344 -13.08789062 37.49414062 C-13.07951172 36.27919922 -13.07113281 35.06425781 -13.0625 33.8125 C-13.05798828 32.58595703 -13.05347656 31.35941406 -13.04882812 30.09570312 C-13.03703065 27.06375332 -13.02056921 24.03190094 -13 21 C-15.64 21 -18.28 21 -21 21 C-21.02689216 19.52093108 -21.04634621 18.04172517 -21.0625 16.5625 C-21.07410156 15.73878906 -21.08570313 14.91507813 -21.09765625 14.06640625 C-21 12 -21 12 -20 11 C-17.66702567 10.95907063 -15.33294775 10.95758277 -13 11 C-13 8.69 -13 6.38 -13 4 C-11.58774074 3.32404685 -10.16997095 2.65959941 -8.75 2 C-7.56664062 1.443125 -7.56664062 1.443125 -6.359375 0.875 C-4 0 -4 0 0 0 Z " fill="#004B85" transform="translate(158,180)"/>
<path d="M0 0 C3.42156426 0.71052645 4.81183604 1.6124098 6.9375 4.40234375 C7.65187164 7.87465838 7.62802395 10.92726795 6.9375 14.40234375 C4.875 17.52734375 4.875 17.52734375 1.9375 19.40234375 C-1.94492397 19.95697575 -4.26760578 19.73796575 -7.875 18.21484375 C-10.5024112 16.0378459 -11.29099576 14.719812 -12.0625 11.40234375 C-11.98099905 7.4902982 -11.29162265 5.72172684 -9 2.52734375 C-5.6792396 0.12509155 -3.99706335 -0.31037803 0 0 Z M-4.0625 3.40234375 C-2.17933841 4.51070798 -2.17933841 4.51070798 -0.0625 5.40234375 C0.5975 5.07234375 1.2575 4.74234375 1.9375 4.40234375 C0.87104885 3.10600754 0.87104885 3.10600754 -1.625 3.33984375 C-2.429375 3.36046875 -3.23375 3.38109375 -4.0625 3.40234375 Z M-7.0625 5.40234375 C-8.47827477 6.58658701 -8.47827477 6.58658701 -8.125 9.96484375 C-8.104375 11.09921875 -8.08375 12.23359375 -8.0625 13.40234375 C-7.0725 13.89734375 -7.0725 13.89734375 -6.0625 14.40234375 C-6.0625 11.43234375 -6.0625 8.46234375 -6.0625 5.40234375 C-6.3925 5.40234375 -6.7225 5.40234375 -7.0625 5.40234375 Z M1.9375 5.40234375 C1.6075 7.38234375 1.2775 9.36234375 0.9375 11.40234375 C2.4225 12.39234375 2.4225 12.39234375 3.9375 13.40234375 C4.86815133 10.79652004 5.08667407 9.76036151 4 7.15234375 C3.649375 6.57484375 3.29875 5.99734375 2.9375 5.40234375 C2.6075 5.40234375 2.2775 5.40234375 1.9375 5.40234375 Z M-3.0625 11.40234375 C-3.0625 12.39234375 -3.0625 13.38234375 -3.0625 14.40234375 C-4.0525 14.73234375 -5.0425 15.06234375 -6.0625 15.40234375 C-3.16176819 16.08035409 -3.16176819 16.08035409 -0.0625 16.40234375 C0.5975 15.74234375 1.2575 15.08234375 1.9375 14.40234375 C0.9475 14.07234375 -0.0425 13.74234375 -1.0625 13.40234375 C-1.7225 12.74234375 -2.3825 12.08234375 -3.0625 11.40234375 Z " fill="#004B85" transform="translate(297.0625,173.59765625)"/>
<path d="M0 0 C2.375 0.6875 2.375 0.6875 3.375 1.6875 C3.625 4.625 3.625 4.625 3.375 7.6875 C0.375 9.6875 0.375 9.6875 -2.25 9.375 C-4.625 8.6875 -4.625 8.6875 -5.625 7.6875 C-5.875 4.75 -5.875 4.75 -5.625 1.6875 C-2.625 -0.3125 -2.625 -0.3125 0 0 Z " fill="#7CC242" transform="translate(224.625,124.3125)"/>
<path d="M0 0 C2.375 0.6875 2.375 0.6875 3.375 1.6875 C3.625 4.625 3.625 4.625 3.375 7.6875 C0.375 9.6875 0.375 9.6875 -2.25 9.375 C-4.625 8.6875 -4.625 8.6875 -5.625 7.6875 C-5.875 4.75 -5.875 4.75 -5.625 1.6875 C-2.625 -0.3125 -2.625 -0.3125 0 0 Z " fill="#7CC242" transform="translate(190.625,124.3125)"/>
<path d="M0 0 C2.3125 1.5 2.3125 1.5 3.125 4.125 C3.186875 4.90875 3.24875 5.6925 3.3125 6.5 C1.625 8.125 1.625 8.125 -0.6875 9.5 C-3.375 9 -3.375 9 -5.6875 7.5 C-6.5 4.875 -6.5 4.875 -6.6875 2.5 C-4.24851931 0.15135193 -3.42280805 -0.6368015 0 0 Z " fill="#004B85" transform="translate(212.6875,163.5)"/>
<path d="M0 0 C2.375 0.75 2.375 0.75 3.375 1.75 C3.625 4.6875 3.625 4.6875 3.375 7.75 C0.375 9.75 0.375 9.75 -2.3125 9.375 C-3.075625 9.16875 -3.83875 8.9625 -4.625 8.75 C-5.95341008 3.31559513 -5.95341008 3.31559513 -4.5 0.8125 C-2.625 -0.25 -2.625 -0.25 0 0 Z " fill="#7CC242" transform="translate(200.625,163.25)"/>
<path d="M0 0 C2 3 2 3 1.6875 5.625 C1 8 1 8 0 9 C-2.33944736 8.71269945 -4.6739143 8.38063221 -7 8 C-7.6875 5.6875 -7.6875 5.6875 -8 3 C-5.94954219 -0.30351536 -3.71424389 -0.57142214 0 0 Z " fill="#7CC242" transform="translate(234,144)"/>
<path d="M0 0 C0.625 2.3125 0.625 2.3125 1 5 C0.01 6.485 0.01 6.485 -1 8 C-4 8.375 -4 8.375 -7 8 C-9 5 -9 5 -8.75 2.375 C-8.5025 1.59125 -8.255 0.8075 -8 0 C-5.13822943 -1.43088528 -3.06624227 -0.59991697 0 0 Z " fill="#004B85" transform="translate(222,135)"/>
<path d="M0 0 C1.010625 0.0825 2.02125 0.165 3.0625 0.25 C5.0625 3.25 5.0625 3.25 4.6875 5.9375 C4.48125 6.700625 4.275 7.46375 4.0625 8.25 C-1.37190487 9.57841008 -1.37190487 9.57841008 -3.875 8.125 C-4.9375 6.25 -4.9375 6.25 -4.6875 3.625 C-3.64060702 0.3098389 -3.64060702 0.3098389 0 0 Z " fill="#7CC242" transform="translate(214.9375,104.75)"/>
<path d="M0 0 C0.763125 0.20625 1.52625 0.4125 2.3125 0.625 C3.64091008 6.05940487 3.64091008 6.05940487 2.1875 8.5625 C0.3125 9.625 0.3125 9.625 -2.3125 9.375 C-4.6875 8.625 -4.6875 8.625 -5.6875 7.625 C-5.9375 4.6875 -5.9375 4.6875 -5.6875 1.625 C-2.6875 -0.375 -2.6875 -0.375 0 0 Z " fill="#7CC242" transform="translate(223.6875,163.375)"/>
<path d="M0 0 C2.875 -0.125 2.875 -0.125 6 0 C6.66 0.66 7.32 1.32 8 2 C7.625 5.125 7.625 5.125 7 8 C5.02 8.33 3.04 8.66 1 9 C-0.625 7.3125 -0.625 7.3125 -2 5 C-1.1875 2.25 -1.1875 2.25 0 0 Z " fill="#004B85" transform="translate(214,154)"/>
<path d="M0 0 C2.875 -0.125 2.875 -0.125 6 0 C6.66 0.66 7.32 1.32 8 2 C7.625 5.125 7.625 5.125 7 8 C5.02 8.33 3.04 8.66 1 9 C-0.625 7.3125 -0.625 7.3125 -2 5 C-1.1875 2.25 -1.1875 2.25 0 0 Z " fill="#7CC242" transform="translate(180,154)"/>
<path d="M0 0 C3.625 0.375 3.625 0.375 7 1 C7 3.31 7 5.62 7 8 C3.625 8.625 3.625 8.625 0 9 C-2 7 -2 7 -2.25 4.5 C-2 2 -2 2 0 0 Z " fill="#7CC242" transform="translate(183,144)"/>
<path d="M0 0 C0.66 0.66 1.32 1.32 2 2 C1.44444444 6.55555556 1.44444444 6.55555556 0 8 C-2.9375 8.25 -2.9375 8.25 -6 8 C-8 5 -8 5 -7.75 2.375 C-7.5025 1.59125 -7.255 0.8075 -7 0 C-4.29393021 -1.35303489 -2.8671629 -0.7884698 0 0 Z " fill="#7CC242" transform="translate(255,135)"/>
<path d="M0 0 C3.125 0.375 3.125 0.375 6 1 C6.625 3.3125 6.625 3.3125 7 6 C6.01 7.485 6.01 7.485 5 9 C2 9.375 2 9.375 -1 9 C-3 6 -3 6 -2.75 3.9375 C-2 2 -2 2 0 0 Z " fill="#7CC242" transform="translate(182,134)"/>
<path d="M0 0 C2 0.6875 2 0.6875 4 2.6875 C3.9375 5.1875 3.9375 5.1875 3 7.6875 C0.4375 9 0.4375 9 -2 9.6875 C-3.32 8.3675 -4.64 7.0475 -6 5.6875 C-3.74810319 -0.58564112 -3.74810319 -0.58564112 0 0 Z " fill="#7CC242" transform="translate(247,124.3125)"/>
<path d="M0 0 C1 1 1 1 1.25 3.9375 C1.1675 4.948125 1.085 5.95875 1 7 C-2 9 -2 9 -4.0625 8.75 C-6 8 -6 8 -8 6 C-7.75 2.9375 -7.75 2.9375 -7 0 C-4.31633121 -1.3418344 -2.84719317 -0.73004953 0 0 Z " fill="#7CC242" transform="translate(238,125)"/>
<path d="M0 0 C2 0.6875 2 0.6875 4 2.6875 C3.9375 5.1875 3.9375 5.1875 3 7.6875 C0.4375 9 0.4375 9 -2 9.6875 C-3.32 8.3675 -4.64 7.0475 -6 5.6875 C-3.74810319 -0.58564112 -3.74810319 -0.58564112 0 0 Z " fill="#004B85" transform="translate(213,124.3125)"/>
<path d="M0 0 C2.4375 1 2.4375 1 3.75 3.5625 C4.0903125 4.7690625 4.0903125 4.7690625 4.4375 6 C3.1175 7.32 1.7975 8.64 0.4375 10 C-2 9.3125 -2 9.3125 -4.5625 8 C-5.5625 5.5625 -5.5625 5.5625 -5.5625 3 C-3.95176874 0.3154479 -3.13532132 0 0 0 Z " fill="#7CC242" transform="translate(201.5625,124)"/>
<path d="M0 0 C2.875 -0.125 2.875 -0.125 6 0 C6.66 0.66 7.32 1.32 8 2 C7.625 5.125 7.625 5.125 7 8 C5.02 8.33 3.04 8.66 1 9 C-0.625 7.3125 -0.625 7.3125 -2 5 C-1.1875 2.25 -1.1875 2.25 0 0 Z " fill="#7CC242" transform="translate(236,115)"/>
<path d="M0 0 C0.94875 0.04125 1.8975 0.0825 2.875 0.125 C4.0625 2.375 4.0625 2.375 4.875 5.125 C3.5 7.4375 3.5 7.4375 1.875 9.125 C-1.095 8.63 -1.095 8.63 -4.125 8.125 C-4.75 5.25 -4.75 5.25 -5.125 2.125 C-3.125 0.125 -3.125 0.125 0 0 Z " fill="#7CC242" transform="translate(194.125,114.875)"/>
<path d="M0 0 C2.875 -0.1875 2.875 -0.1875 6 0 C8 3 8 3 7.6875 5.625 C7 8 7 8 6 9 C3.66055264 8.71269945 1.3260857 8.38063221 -1 8 C-1.93065133 5.39417629 -2.14917407 4.35801776 -1.0625 1.75 C-0.711875 1.1725 -0.36125 0.595 0 0 Z " fill="#7CC242" transform="translate(178,105)"/>
<path d="M0 0 C2.97 0.495 2.97 0.495 6 1 C6.625 3.875 6.625 3.875 7 7 C5 9 5 9 1.875 9.125 C0.92625 9.08375 -0.0225 9.0425 -1 9 C-2.1875 6.75 -2.1875 6.75 -3 4 C-1.625 1.6875 -1.625 1.6875 0 0 Z " fill="#7CC242" transform="translate(238,95)"/>
<path d="M0 0 C2.5 0.875 2.5 0.875 3.9375 3.25 C4.123125 4.11625 4.30875 4.9825 4.5 5.875 C3.51 7.36 3.51 7.36 2.5 8.875 C-0.5 9.1875 -0.5 9.1875 -3.5 8.875 C-4.16 8.215 -4.82 7.555 -5.5 6.875 C-5.25 3.8125 -5.25 3.8125 -4.5 0.875 C-2.5 -0.125 -2.5 -0.125 0 0 Z " fill="#7CC242" transform="translate(195.5,95.125)"/>
<path d="M0 0 C2.9375 0.1875 2.9375 0.1875 3.9375 1.1875 C4.125 4.125 4.125 4.125 3.9375 7.1875 C3.2775 7.8475 2.6175 8.5075 1.9375 9.1875 C-3.63068182 8.61931818 -3.63068182 8.61931818 -5.0625 7.1875 C-5.25 4.75 -5.25 4.75 -5.0625 2.1875 C-3.0625 0.1875 -3.0625 0.1875 0 0 Z " fill="#7CC242" transform="translate(240.0625,153.8125)"/>
<path d="M0 0 C3.0625 0.1875 3.0625 0.1875 5.0625 2.1875 C5.375 4.6875 5.375 4.6875 5.0625 7.1875 C2.0625 9.1875 2.0625 9.1875 -0.5625 8.875 C-2.9375 8.1875 -2.9375 8.1875 -3.9375 7.1875 C-4.0625 4.1875 -4.0625 4.1875 -3.9375 1.1875 C-2.9375 0.1875 -2.9375 0.1875 0 0 Z " fill="#7CC242" transform="translate(227.9375,153.8125)"/>
<path d="M0 0 C2 3 2 3 1.6875 5.625 C1 8 1 8 0 9 C-2.33944736 8.71269945 -4.6739143 8.38063221 -7 8 C-7.93423645 4.98968256 -8.04449911 4.13349732 -7 1 C-4.46578263 -0.26710868 -2.80561762 -0.28056176 0 0 Z " fill="#7CC242" transform="translate(200,144)"/>
<path d="M0 0 C2.5 0.25 2.5 0.25 4.5 2.25 C4.625 5.375 4.625 5.375 4.5 8.25 C1.125 8.875 1.125 8.875 -2.5 9.25 C-4.5 7.25 -4.5 7.25 -4.75 4.75 C-4.40058445 1.25584452 -3.49415548 0.34941555 0 0 Z " fill="#7CC242" transform="translate(240.5,133.75)"/>
<path d="M0 0 C5.56818182 0.56818182 5.56818182 0.56818182 7 2 C7.1875 4.4375 7.1875 4.4375 7 7 C5 9 5 9 1.9375 9.1875 C-1 9 -1 9 -2 8 C-2.1875 5.0625 -2.1875 5.0625 -2 2 C-1.34 1.34 -0.68 0.68 0 0 Z " fill="#7CC242" transform="translate(227,134)"/>
<path d="M0 0 C2.375 0.6875 2.375 0.6875 3.375 1.6875 C3.5 4.6875 3.5 4.6875 3.375 7.6875 C2.375 8.6875 2.375 8.6875 -0.5625 8.875 C-3.625 8.6875 -3.625 8.6875 -5.625 6.6875 C-5.9375 4.1875 -5.9375 4.1875 -5.625 1.6875 C-2.625 -0.3125 -2.625 -0.3125 0 0 Z " fill="#7CC242" transform="translate(207.625,134.3125)"/>
<path d="M0 0 C1.9375 0.75 1.9375 0.75 3.9375 2.75 C3.60778521 6.04714793 3.3148161 7.3726839 0.9375 9.75 C-3.61805556 9.19444444 -3.61805556 9.19444444 -5.0625 7.75 C-5.3125 4.8125 -5.3125 4.8125 -5.0625 1.75 C-2.0625 -0.25 -2.0625 -0.25 0 0 Z " fill="#7CC242" transform="translate(179.0625,124.25)"/>
<path d="M0 0 C0.94875 0.04125 1.8975 0.0825 2.875 0.125 C4.0625 2.375 4.0625 2.375 4.875 5.125 C3.5 7.4375 3.5 7.4375 1.875 9.125 C-1.095 8.63 -1.095 8.63 -4.125 8.125 C-4.75 5.25 -4.75 5.25 -5.125 2.125 C-3.125 0.125 -3.125 0.125 0 0 Z " fill="#7CC242" transform="translate(228.125,114.875)"/>
<path d="M0 0 C2.9375 0.1875 2.9375 0.1875 3.9375 1.1875 C4.125 4.125 4.125 4.125 3.9375 7.1875 C3.2775 7.8475 2.6175 8.5075 1.9375 9.1875 C-3.63068182 8.61931818 -3.63068182 8.61931818 -5.0625 7.1875 C-5.25 4.75 -5.25 4.75 -5.0625 2.1875 C-3.0625 0.1875 -3.0625 0.1875 0 0 Z " fill="#7CC242" transform="translate(183.0625,114.8125)"/>
<path d="M0 0 C3.0625 0.1875 3.0625 0.1875 5.0625 2.1875 C5.375 4.6875 5.375 4.6875 5.0625 7.1875 C2.0625 9.1875 2.0625 9.1875 -0.5625 8.875 C-2.9375 8.1875 -2.9375 8.1875 -3.9375 7.1875 C-4.0625 4.1875 -4.0625 4.1875 -3.9375 1.1875 C-2.9375 0.1875 -2.9375 0.1875 0 0 Z " fill="#7CC242" transform="translate(170.9375,114.8125)"/>
<path d="M0 0 C3.625 0.375 3.625 0.375 7 1 C7.125 3.875 7.125 3.875 7 7 C5 9 5 9 2.5 9.25 C0 9 0 9 -2 7 C-2.25 4.5 -2.25 4.5 -2 2 C-1.34 1.34 -0.68 0.68 0 0 Z " fill="#004B85" transform="translate(201,105)"/>
<path d="M0 0 C1.4375 1.8125 1.4375 1.8125 2 4 C1.125 6.25 1.125 6.25 0 8 C-2.875 8.125 -2.875 8.125 -6 8 C-6.66 7.34 -7.32 6.68 -8 6 C-7.75 2.9375 -7.75 2.9375 -7 0 C-4.25509788 -1.37245106 -2.87939419 -0.93580311 0 0 Z " fill="#7CC242" transform="translate(232,96)"/>
<path d="M0 0 C2.9375 0.1875 2.9375 0.1875 3.9375 1.1875 C4.125 4.125 4.125 4.125 3.9375 7.1875 C3.2775 7.8475 2.6175 8.5075 1.9375 9.1875 C-1.1875 8.8125 -1.1875 8.8125 -4.0625 8.1875 C-4.6875 5.3125 -4.6875 5.3125 -5.0625 2.1875 C-3.0625 0.1875 -3.0625 0.1875 0 0 Z " fill="#7CC242" transform="translate(206.0625,153.8125)"/>
<path d="M0 0 C2.5 0.25 2.5 0.25 4.5 2.25 C4.75 4.75 4.75 4.75 4.5 7.25 C2.5 9.25 2.5 9.25 0 9.5 C-2.5 9.25 -2.5 9.25 -4.5 7.25 C-4.75 4.75 -4.75 4.75 -4.5 2.25 C-2.5 0.25 -2.5 0.25 0 0 Z " fill="#7CC242" transform="translate(242.5,143.75)"/>
<path d="M0 0 C2.5 0.25 2.5 0.25 4.5 2.25 C4.75 4.75 4.75 4.75 4.5 7.25 C2.5 9.25 2.5 9.25 0 9.5 C-2.5 9.25 -2.5 9.25 -4.5 7.25 C-4.75 4.75 -4.75 4.75 -4.5 2.25 C-2.5 0.25 -2.5 0.25 0 0 Z " fill="#004B85" transform="translate(219.5,143.75)"/>
<path d="M0 0 C2.5 0.25 2.5 0.25 4.5 2.25 C4.75 4.75 4.75 4.75 4.5 7.25 C2.5 9.25 2.5 9.25 0 9.5 C-2.5 9.25 -2.5 9.25 -4.5 7.25 C-4.75 4.75 -4.75 4.75 -4.5 2.25 C-2.5 0.25 -2.5 0.25 0 0 Z " fill="#7CC242" transform="translate(208.5,143.75)"/>
<path d="M0 0 C2.5 0.25 2.5 0.25 4.5 2.25 C4.75 4.75 4.75 4.75 4.5 7.25 C2.5 9.25 2.5 9.25 0 9.5 C-2.5 9.25 -2.5 9.25 -4.5 7.25 C-4.75 4.75 -4.75 4.75 -4.5 2.25 C-2.5 0.25 -2.5 0.25 0 0 Z " fill="#7CC242" transform="translate(174.5,143.75)"/>
<path d="M0 0 C2.5 0.25 2.5 0.25 4.5 2.25 C4.75 4.75 4.75 4.75 4.5 7.25 C2.5 9.25 2.5 9.25 0 9.5 C-2.5 9.25 -2.5 9.25 -4.5 7.25 C-4.75 4.75 -4.75 4.75 -4.5 2.25 C-2.5 0.25 -2.5 0.25 0 0 Z " fill="#7CC242" transform="translate(195.5,133.75)"/>
<path d="M0 0 C1 1 1 1 1.125 4 C1 7 1 7 0 8 C-2.9375 8.1875 -2.9375 8.1875 -6 8 C-6.66 7.34 -7.32 6.68 -8 6 C-7.75 2.9375 -7.75 2.9375 -7 0 C-4.31633121 -1.3418344 -2.84719317 -0.73004953 0 0 Z " fill="#7CC242" transform="translate(176,135)"/>
<path d="M0 0 C3.0625 0.1875 3.0625 0.1875 5.0625 2.1875 C4.6875 5.3125 4.6875 5.3125 4.0625 8.1875 C1.1875 8.8125 1.1875 8.8125 -1.9375 9.1875 C-3.9375 7.1875 -3.9375 7.1875 -4.125 4.125 C-3.8775 0.2475 -3.8775 0.2475 0 0 Z " fill="#004B85" transform="translate(204.9375,114.8125)"/>
<path d="M0 0 C2.5 0.25 2.5 0.25 4.5 2.25 C4.75 4.75 4.75 4.75 4.5 7.25 C2.5 9.25 2.5 9.25 0 9.5 C-2.5 9.25 -2.5 9.25 -4.5 7.25 C-4.75 4.75 -4.75 4.75 -4.5 2.25 C-2.5 0.25 -2.5 0.25 0 0 Z " fill="#7CC242" transform="translate(237.5,104.75)"/>
<path d="M0 0 C2.5 0.25 2.5 0.25 4.5 2.25 C4.75 4.75 4.75 4.75 4.5 7.25 C2.5 9.25 2.5 9.25 0 9.5 C-2.5 9.25 -2.5 9.25 -4.5 7.25 C-4.75 4.75 -4.75 4.75 -4.5 2.25 C-2.5 0.25 -2.5 0.25 0 0 Z " fill="#7CC242" transform="translate(226.5,104.75)"/>
<path d="M0 0 C2.5 0.25 2.5 0.25 4.5 2.25 C4.75 4.75 4.75 4.75 4.5 7.25 C2.5 9.25 2.5 9.25 0 9.5 C-2.5 9.25 -2.5 9.25 -4.5 7.25 C-4.75 4.75 -4.75 4.75 -4.5 2.25 C-2.5 0.25 -2.5 0.25 0 0 Z " fill="#7CC242" transform="translate(192.5,104.75)"/>
<path d="M0 0 C2.5 0.25 2.5 0.25 4.5 2.25 C4.75 4.75 4.75 4.75 4.5 7.25 C2.5 9.25 2.5 9.25 0 9.5 C-2.5 9.25 -2.5 9.25 -4.5 7.25 C-4.75 4.75 -4.75 4.75 -4.5 2.25 C-2.5 0.25 -2.5 0.25 0 0 Z " fill="#7CC242" transform="translate(217.5,94.75)"/>
<path d="M0 0 C3.125 0.375 3.125 0.375 6 1 C6.625 3.875 6.625 3.875 7 7 C5 9 5 9 1.9375 9.1875 C-1 9 -1 9 -2 8 C-2.1875 5.0625 -2.1875 5.0625 -2 2 C-1.34 1.34 -0.68 0.68 0 0 Z " fill="#004B85" transform="translate(204,95)"/>
<path d="M0 0 C2.5 0.25 2.5 0.25 4.5 2.25 C4.75 4.75 4.75 4.75 4.5 7.25 C2.5 9.25 2.5 9.25 0 9.5 C-2.5 9.25 -2.5 9.25 -4.5 7.25 C-4.75 4.75 -4.75 4.75 -4.5 2.25 C-2.5 0.25 -2.5 0.25 0 0 Z " fill="#7CC242" transform="translate(183.5,94.75)"/>
<path d="M0 0 C2.5 0.25 2.5 0.25 4.5 2.25 C4.8125 4.75 4.8125 4.75 4.5 7.25 C1.5 9.25 1.5 9.25 -1.125 8.9375 C-3.5 8.25 -3.5 8.25 -4.5 7.25 C-4.6875 4.8125 -4.6875 4.8125 -4.5 2.25 C-2.5 0.25 -2.5 0.25 0 0 Z " fill="#7CC242" transform="translate(194.5,153.75)"/>
<path d="M0 0 C2.5 0.25 2.5 0.25 4.5 2.25 C4.8125 4.75 4.8125 4.75 4.5 7.25 C1.5 9.25 1.5 9.25 -1.125 8.9375 C-3.5 8.25 -3.5 8.25 -4.5 7.25 C-4.6875 4.8125 -4.6875 4.8125 -4.5 2.25 C-2.5 0.25 -2.5 0.25 0 0 Z " fill="#7CC242" transform="translate(250.5,114.75)"/>
<path d="M0 0 C2.5 0.25 2.5 0.25 4.5 2.25 C4.75 4.75 4.75 4.75 4.5 7.25 C3.84 7.91 3.18 8.57 2.5 9.25 C-3.06818182 8.68181818 -3.06818182 8.68181818 -4.5 7.25 C-4.6875 4.8125 -4.6875 4.8125 -4.5 2.25 C-2.5 0.25 -2.5 0.25 0 0 Z " fill="#7CC242" transform="translate(216.5,114.75)"/>
<path d="M0 0 C3.0625 0.1875 3.0625 0.1875 5.0625 2.1875 C5 4.6875 5 4.6875 4.0625 7.1875 C1.5 8.5 1.5 8.5 -0.9375 9.1875 C-3 7.4375 -3 7.4375 -4.9375 5.1875 C-4.60192127 1.27241483 -3.95046399 0.25215728 0 0 Z " fill="#7CC242" transform="translate(222.9375,85.8125)"/>
<path d="M0 0 C2.33294775 -0.04241723 4.66702567 -0.04092937 7 0 C8 1 8 1 8.0625 4.0625 C8.041875 5.031875 8.02125 6.00125 8 7 C5.75 8.1875 5.75 8.1875 3 9 C0.6875 7.625 0.6875 7.625 -1 6 C-0.67 4.02 -0.34 2.04 0 0 Z " fill="#004B85" transform="translate(208,86)"/>
<path d="M0 0 C1.134375 0.020625 2.26875 0.04125 3.4375 0.0625 C3.7675 2.0425 4.0975 4.0225 4.4375 6.0625 C2.75 7.6875 2.75 7.6875 0.4375 9.0625 C-2.3125 8.25 -2.3125 8.25 -4.5625 7.0625 C-4.60504356 5.06295254 -4.60330783 3.06208364 -4.5625 1.0625 C-3.5625 0.0625 -3.5625 0.0625 0 0 Z " fill="#7CC242" transform="translate(200.5625,85.9375)"/>
</svg>
