<?xml version="1.0" encoding="UTF-8"?>
<svg version="1.1" xmlns="http://www.w3.org/2000/svg" width="1552" height="1553">
<path d="M0 0 C512.16 0 1024.32 0 1552 0 C1552 512.49 1552 1024.98 1552 1553 C1039.84 1553 527.68 1553 0 1553 C0 1040.51 0 528.02 0 0 Z " fill="#00CFEC" transform="translate(0,0)"/>
<path d="M0 0 C3.1019949 0.78238593 6.23758946 1.30495579 9.38671875 1.8671875 C71.51913357 13.24427068 134.12923982 41.96272431 178.45703125 87.8125 C180.2325907 89.58805945 182.08890077 91.19075594 184.01171875 92.8046875 C189.06702355 97.15621457 193.44122974 102.12914781 197.87939453 107.09082031 C199.05273335 108.39221498 200.2475752 109.67414986 201.4453125 110.953125 C218.22930577 128.99976731 231.96136647 150.05380892 244.69042969 171.06591797 C246.12547784 173.4330508 247.57110751 175.79337929 249.01953125 178.15234375 C249.85087562 179.51524993 250.68164507 180.87850704 251.51171875 182.2421875 C251.89094482 182.85980957 252.2701709 183.47743164 252.66088867 184.11376953 C255.19921875 188.32359449 255.19921875 188.32359449 255.19921875 190.5546875 C264.76921875 190.2246875 274.33921875 189.8946875 284.19921875 189.5546875 C285.91109375 185.8628125 287.62296875 182.1709375 289.38671875 178.3671875 C295.15996019 166.18944363 301.74371083 154.77194845 309.19921875 143.5546875 C309.86002441 142.55622803 309.86002441 142.55622803 310.53417969 141.53759766 C324.08947828 121.27872243 341.41320396 102.80279843 361.19921875 88.5546875 C361.79702148 88.12317383 362.39482422 87.69166016 363.01074219 87.24707031 C371.66978211 81.07387917 380.63267302 76.00780286 390.24804688 71.48388672 C392.12748078 70.588851 393.98429976 69.65822971 395.83984375 68.71484375 C405.93374344 63.65966518 416.2864086 60.36920554 427.19921875 57.5546875 C428.20162598 57.2767334 429.2040332 56.9987793 430.23681641 56.71240234 C449.01167034 51.63989795 467.26737816 51.01211998 486.63671875 51.0546875 C487.83076324 51.0562384 489.02480774 51.05778931 490.2550354 51.05938721 C503.36214895 51.10869974 516.25155158 51.3918535 529.19921875 53.5546875 C529.99900146 53.68439941 530.79878418 53.81411133 531.62280273 53.94775391 C564.91716196 59.91321189 594.49437131 76.96429118 618.19921875 100.5546875 C618.7111377 101.06257813 619.22305664 101.57046875 619.75048828 102.09375 C666.20586867 148.81458971 676.24470599 218.99307636 676.49676514 281.7749939 C676.50653086 284.16175722 676.52085484 286.54850745 676.54034424 288.93521118 C676.6586577 305.53359128 675.65024678 321.80232672 673.86619473 338.30143547 C673.0622402 345.74604349 672.3497115 353.19901719 671.63705635 360.65282822 C671.33494926 363.80918589 671.03021188 366.96528721 670.72540951 370.12138557 C670.49568474 372.5003293 670.26637952 374.87931321 670.03710938 377.25830078 C669.72599882 380.48464165 669.41373884 383.71086846 669.10058594 386.93701172 C668.71261779 390.93426608 668.32685673 394.93172814 667.94255447 398.92933655 C667.79901911 400.41861836 667.65474286 401.907829 667.50962448 403.3969574 C666.2296001 416.54037651 665.06490787 429.68416926 664.99609375 442.8984375 C664.98754364 444.24488342 664.98754364 444.24488342 664.9788208 445.61853027 C664.96950141 447.49030423 664.96289005 449.36209363 664.95898438 451.23388672 C664.94923238 454.0507511 664.91806435 456.86689775 664.88671875 459.68359375 C664.82404704 470.37997563 665.49116858 480.178248 668.19921875 490.5546875 C668.39805664 491.32506348 668.59689453 492.09543945 668.80175781 492.88916016 C673.86600152 510.9540803 682.56003203 527.91870278 699.19921875 537.5546875 C712.88344789 545.00603145 731.48949608 546.17592674 746.38671875 541.9296875 C765.48108671 534.86772409 777.64993857 520.11397807 786.1796875 502.171875 C789.00310272 495.93355082 791.26869006 489.47473982 793.49804688 483.00463867 C797.52051855 471.3940376 797.52051855 471.3940376 801.19921875 469.5546875 C804.26091701 468.97150688 806.32086212 469.04801441 809.0546875 470.625 C822.33803136 481.17743684 829.84077316 499.79574443 831.96777344 516.16162109 C835.42613565 551.91991896 826.17064501 589.44899255 803.19921875 617.5546875 C800.29222373 620.9817174 797.28800935 624.29105969 794.19921875 627.5546875 C793.47863281 628.328125 792.75804687 629.1015625 792.015625 629.8984375 C783.59451564 638.66479734 774.02145779 645.10635258 763.19921875 650.5546875 C762.27238281 651.04710937 761.34554688 651.53953125 760.390625 652.046875 C743.78670598 660.38122187 726.4393757 663.54646177 707.98486328 663.22705078 C705.0669132 663.17956862 702.15261905 663.18603612 699.234375 663.19921875 C664.93438639 663.09695917 632.78991797 652.02865872 608.19921875 627.5546875 C593.96894771 612.51188555 583.26977352 592.93746376 582.01171875 571.99609375 C582.19921875 569.5546875 582.19921875 569.5546875 584.19921875 567.5546875 C586.42578125 567.0546875 586.42578125 567.0546875 589.19921875 567.5546875 C591.59552288 569.29576432 593.55483446 571.39688005 595.57421875 573.5546875 C596.44554443 574.45272095 596.44554443 574.45272095 597.33447266 575.36889648 C600.21050405 578.35591703 602.95335738 581.40253722 605.57421875 584.6171875 C620.74409747 602.27819827 644.72409943 614.64745621 667.19921875 619.5546875 C668.07449219 619.74804688 668.94976563 619.94140625 669.8515625 620.140625 C697.17713524 625.20227472 726.70134324 623.66965795 750.19921875 607.5546875 C755.99784289 602.65807156 761.85056021 595.86676729 764.19921875 588.5546875 C764.19921875 587.2346875 764.19921875 585.9146875 764.19921875 584.5546875 C757.72615781 584.07255606 752.59103178 585.83392705 746.51171875 587.9296875 C725.61513585 594.77312248 704.66436116 595.75688509 683.19921875 590.5546875 C682.19503906 590.36132812 681.19085937 590.16796875 680.15625 589.96875 C654.48621183 584.63381629 633.70782924 566.87745084 619.4765625 545.54638672 C609.5995987 530.14572337 602.78524108 512.73114397 598.1315918 495.078125 C597.52661729 492.7919265 596.90338889 490.51045109 596.25878906 488.23510742 C593.58038099 478.64947136 591.73831904 469.06964802 590.19921875 459.2421875 C590.07259857 458.44710785 589.94597839 457.6520282 589.81552124 456.83285522 C585.3204773 428.53734131 582.54236209 400.0989245 580.19921875 371.5546875 C577.08501882 374.46462388 575.45003795 377.78144477 573.57421875 381.5546875 C569.90374603 388.64797423 565.66642417 394.69037088 560.19921875 400.5546875 C559.49796875 401.32167969 558.79671875 402.08867188 558.07421875 402.87890625 C544.6013611 416.28159277 522.52641518 425.61285201 503.51171875 425.6796875 C502.41859375 425.6384375 501.32546875 425.5971875 500.19921875 425.5546875 C500.80286082 421.69137823 502.00397195 418.31011346 503.48046875 414.71484375 C505.23340321 409.44651356 505.46099962 404.00390077 505.57421875 398.4921875 C505.63029297 397.45094727 505.63029297 397.45094727 505.6875 396.38867188 C505.75414479 392.48995189 505.37124558 390.77193788 502.92578125 387.68359375 C496.40033512 382.58851045 490.34806712 382.68442214 482.19921875 383.5546875 C478.51683866 384.77244429 475.43649885 386.43776629 472.19921875 388.5546875 C470.83796875 389.3590625 470.83796875 389.3590625 469.44921875 390.1796875 C464.19080706 395.73023317 460.4690339 402.86495584 460.19921875 410.5546875 C460.10833984 411.85986328 460.10833984 411.85986328 460.015625 413.19140625 C459.05846828 435.38003941 474.2932639 455.90721729 486.19921875 473.5546875 C489.15662017 477.95198801 492.10703109 482.35394567 495.05496216 486.75759888 C496.34633835 488.68201248 497.64424855 490.6018773 498.94311523 492.52124023 C513.53066811 514.17162383 513.53066811 514.17162383 517.57421875 525.9921875 C517.80753906 526.63349609 518.04085938 527.27480469 518.28125 527.93554688 C523.38453744 542.16420422 523.43661445 555.68403674 523.44921875 570.6171875 C523.45055817 571.5506601 523.45189758 572.48413269 523.45327759 573.44589233 C523.44864736 588.33493825 522.82778506 602.86260869 520.19921875 617.5546875 C520.00706787 618.63314941 520.00706787 618.63314941 519.81103516 619.73339844 C517.13959087 634.04395879 517.13959087 634.04395879 512.48828125 638.015625 C506.58796276 641.76284481 500.74540963 642.01648935 493.94921875 642.0546875 C493.08562744 642.06097168 492.22203613 642.06725586 491.33227539 642.07373047 C484.61853947 641.93993637 480.41164388 640.75103395 475.51171875 635.88671875 C472.31723994 631.75966645 471.02922323 626.96624289 469.52734375 622.03710938 C468.17399502 617.84823795 468.17399502 617.84823795 464.76171875 615.32421875 C462.10884429 615.34585088 462.10884429 615.34585088 460.0390625 617.08984375 C457.89524234 619.96192554 456.8961479 622.59675077 455.76171875 625.9921875 C452.82851153 633.96266547 448.76963949 637.99988124 441.19921875 641.5546875 C431.27444023 645.32610334 420.02803773 644.62518976 409.5703125 644.51171875 C408.52607117 644.50154221 407.48182983 644.49136566 406.40594482 644.48088074 C402.03525366 644.43520325 397.66493289 644.38543982 393.29467773 644.30786133 C390.07398141 644.25356261 386.85385043 644.22436131 383.6328125 644.19921875 C382.64429794 644.17543655 381.65578339 644.15165436 380.63731384 644.12715149 C375.26297373 644.04369623 375.26297373 644.04369623 370.56445312 646.37646484 C367.6043525 651.09928634 369.34636109 657.30633266 370.19921875 662.5546875 C371.05966766 665.48867724 371.98512346 668.34059221 374.19921875 670.5546875 C381.90451358 670.93032062 389.54430112 669.91139211 397.19921875 669.1171875 C414.24444132 667.36228527 431.07916874 666.38613597 448.21630859 666.42431641 C451.06353103 666.42966741 453.91059487 666.42434056 456.7578125 666.41796875 C465.57961375 666.41324738 474.39355148 666.50691171 483.20703125 666.91015625 C483.93002411 666.93685394 484.65301697 666.96355164 485.3979187 666.99105835 C492.37331795 667.36850717 498.24272733 669.59819608 503.19921875 674.5546875 C506.92063528 696.99053522 493.72021513 728.71768748 482.19921875 747.5546875 C478.92004876 751.9859983 476.08677827 753.30296711 470.81402588 754.18110657 C462.19799953 755.41208958 453.59587396 755.73318229 444.90234375 755.79296875 C443.75167419 755.8010405 442.60100464 755.80911224 441.41546631 755.81742859 C438.98841823 755.8311825 436.56135151 755.841943 434.13427734 755.84985352 C431.69899658 755.86130873 429.26373962 755.88165626 426.82861328 755.91137695 C406.02221374 756.16435518 386.37884855 754.31823765 366.44921875 748.0546875 C365.35254883 747.72138428 364.25587891 747.38808105 363.12597656 747.04467773 C353.65887646 744.11985589 344.30850554 740.86645657 334.94921875 737.6171875 C299.52715588 725.33430759 266.29731248 715.92003461 228.57421875 721.9921875 C189.76657896 728.11500023 147.49441173 730.84797868 113.1171875 708.71875 C111.10340351 707.39948083 111.10340351 707.39948083 108.19921875 706.5546875 C105.7595904 717.34902075 103.42344584 728.16086589 101.19213867 739.00024414 C100.09797986 744.29985726 98.97668641 749.59070486 97.79296875 754.87109375 C90.87904732 785.87813985 85.96555121 817.21397854 82.0682373 848.73164368 C81.58083743 852.64550434 81.06324949 856.55254969 80.50024414 860.45629883 C78.28907064 875.86233365 76.76742731 891.31900606 75.32843018 906.8125 C75.07370073 909.54258978 74.81422471 912.27221952 74.55474854 915.00186157 C73.86035005 922.30860338 73.18880241 929.61708362 72.53125 936.92724609 C72.22967476 940.2219556 71.90930029 943.51421008 71.58398438 946.80664062 C69.98306345 963.71981253 69.82424963 980.59940274 69.82861328 997.57373047 C69.82877591 1000.80768168 69.81483305 1004.04106683 69.78759766 1007.27490234 C69.484567 1043.83652573 71.15000028 1090.08338148 96.76171875 1119.1796875 C98.22048019 1120.65843197 99.69816269 1122.11889474 101.19921875 1123.5546875 C101.80765625 1124.1940625 102.41609375 1124.8334375 103.04296875 1125.4921875 C105.93709805 1128.33369627 108.14660808 1129.93823046 112.26171875 1130.2421875 C116.85540737 1129.44011488 119.16487945 1127.94897869 122.19921875 1124.5546875 C124.67956039 1120.80552798 126.79991779 1116.87550159 128.94921875 1112.9296875 C150.52005221 1074.49019095 178.06091724 1036.85205038 212.19921875 1008.5546875 C212.7293457 1008.1107666 213.25947266 1007.6668457 213.80566406 1007.20947266 C228.45311867 994.97160742 243.69795461 983.80122413 260.01220703 973.88964844 C262.40460008 972.42932189 264.78505756 970.95078298 267.1640625 969.46875 C275.79978623 964.09147061 284.46559229 958.7715622 293.19921875 953.5546875 C309.17224155 944.00086269 325.04212052 934.37048459 340.19921875 923.5546875 C341.34801514 922.74064453 341.34801514 922.74064453 342.52001953 921.91015625 C354.05617694 913.70543182 364.65777544 905.09613081 374.66796875 895.0859375 C376.47804746 893.27585879 378.2999787 891.48886404 380.14453125 889.71484375 C387.39729961 882.68492264 393.89336388 875.37672842 399.92138672 867.27246094 C401.12744818 865.65116777 402.35222813 864.04384762 403.578125 862.4375 C410.64413815 852.91526152 416.57651647 842.74080804 422.62109375 832.55078125 C433.47442153 814.27948472 433.47442153 814.27948472 437.19921875 810.5546875 C440.11477969 810.70420345 441.69054869 811.10253633 443.88671875 813.0546875 C447.83802721 820.58098934 448.02627069 830.11056276 449.00415039 838.44165039 C449.2551922 840.56206132 449.52065217 842.68030748 449.78710938 844.79882812 C452.30998634 865.56210557 452.36624879 886.46862763 452.32958984 907.35717773 C452.32418718 911.01355055 452.32959853 914.66980253 452.3359375 918.32617188 C452.34090386 934.00139325 451.9838389 949.52388679 450.26171875 965.1171875 C449.7048412 970.36081997 449.17936912 975.59950184 448.80078125 980.859375 C446.98089208 1005.94200304 443.32331672 1030.87753825 439.03515625 1055.6484375 C438.14186506 1060.81493398 437.40814749 1065.99192887 436.703125 1071.1875 C436.20542225 1074.51323468 435.61031216 1077.80796433 434.9934082 1081.11303711 C432.66903999 1092.36400084 432.66903999 1092.36400084 434.19921875 1103.5546875 C438.37391692 1103.74885951 441.50420133 1103.60747496 445.19921875 1101.5546875 C445.87797858 1100.22746962 446.54169993 1098.89255566 447.19921875 1097.5546875 C448.59262478 1095.57973598 450.01349606 1093.62409339 451.44921875 1091.6796875 C476.81304721 1056.61875413 494.42627792 1018.85200239 509.04345703 978.33984375 C511.72326174 970.9523646 511.72326174 970.9523646 513.19921875 968.5546875 C515.51171875 967.5546875 515.51171875 967.5546875 518.19921875 967.5546875 C522.91260524 970.49867172 524.77132119 974.10972594 526.76171875 979.1171875 C527.08760986 979.91366699 527.41350098 980.71014648 527.74926758 981.53076172 C531.24874935 990.30708732 534.3137768 999.247275 537.38671875 1008.1796875 C537.76463058 1009.27653366 537.76463058 1009.27653366 538.150177 1010.39553833 C541.80107376 1021.03295973 545.1020426 1031.7440145 548.19921875 1042.5546875 C548.49127197 1043.56128418 548.7833252 1044.56788086 549.08422852 1045.60498047 C560.03312218 1083.46691707 569.2780496 1121.77246618 576.4777832 1160.5246582 C577.30413436 1164.96936092 578.1580878 1169.40254651 579.12084961 1173.81982422 C581.6205195 1185.30637917 583.58074277 1196.79698199 585.26171875 1208.4296875 C585.52131186 1210.19432789 585.78140765 1211.95889441 586.04199219 1213.72338867 C587.49341763 1223.57840668 588.90183762 1233.43949106 590.29272461 1243.30322266 C590.79090678 1253.14214716 590.79090678 1253.14214716 594.19921875 1261.5546875 C597.62059653 1261.78213637 597.62059653 1261.78213637 601.19921875 1260.5546875 C603.17837962 1258.16054128 604.12850191 1255.44750143 605.19921875 1252.5546875 C605.51375 1251.78125 605.82828125 1251.0078125 606.15234375 1250.2109375 C620.96528419 1212.12051924 626.31732897 1168.23507695 627.19921875 1127.5546875 C627.21595642 1126.8028418 627.23269409 1126.05099609 627.24993896 1125.27636719 C627.78603397 1100.18436847 627.63884578 1075.53418974 622.64892578 1050.83032227 C621.95357114 1047.31164656 622.02282877 1044.14128373 622.19921875 1040.5546875 C624.19921875 1038.5546875 624.19921875 1038.5546875 626.04467773 1038.4309082 C632.14700942 1039.08456116 636.85913095 1040.89154522 642.26171875 1043.7421875 C643.11096924 1044.17853516 643.96021973 1044.61488281 644.83520508 1045.06445312 C654.91095924 1050.31962539 664.6812149 1056.11638187 674.44433594 1061.92529297 C676.89603677 1063.37536842 679.35871698 1064.80206489 681.83203125 1066.21484375 C695.56224525 1074.08273689 708.56181814 1083.03068674 721.29296875 1092.421875 C723.59444978 1094.11086511 725.90680879 1095.77942714 728.23046875 1097.4375 C743.97090732 1108.68412453 759.2047904 1120.39086142 773.69091797 1133.22119141 C775.57694618 1134.88863816 777.48227174 1136.53333803 779.38671875 1138.1796875 C783.66992635 1141.93558876 787.85673224 1145.79732304 792.046875 1149.65625 C794.13098928 1151.57557385 796.22208655 1153.48674023 798.3203125 1155.390625 C803.72804354 1160.30487488 809.00202532 1165.30995869 814.12890625 1170.51953125 C816.04527049 1172.40335346 818.01765615 1174.13950839 820.07421875 1175.8671875 C824.03653395 1179.26345768 827.49817165 1183.06122808 830.98291016 1186.93188477 C834.04512926 1190.32511164 837.19359882 1193.59359732 840.44921875 1196.8046875 C843.89312953 1200.2107531 847.15003309 1203.6911398 850.296875 1207.37109375 C852.20602599 1209.56250115 854.16913191 1211.69780478 856.14624023 1213.82788086 C860.88745692 1218.93873249 865.39919656 1224.16195527 869.76953125 1229.59765625 C872.05975142 1232.38494992 874.41325191 1235.0972831 876.79760742 1237.8034668 C882.61456486 1244.41149606 888.09559739 1251.19281791 893.39575195 1258.22167969 C896.8945831 1262.86153696 900.47554626 1267.41717847 904.13671875 1271.9296875 C924.0328574 1296.57807806 941.79837819 1323.10915341 959.19921875 1349.5546875 C959.66634277 1350.26431641 960.1334668 1350.97394531 960.61474609 1351.70507812 C962.08488953 1353.94371673 963.54929976 1356.18599645 965.01171875 1358.4296875 C965.45596191 1359.10725098 965.90020508 1359.78481445 966.35791016 1360.48291016 C969.55740987 1365.41512126 972.32715842 1370.3849789 975.19921875 1375.5546875 C463.03921875 1375.5546875 -49.12078125 1375.5546875 -576.80078125 1375.5546875 C-576.80078125 1375.2246875 -576.80078125 1374.8946875 -576.80078125 1374.5546875 C-441.83078125 1374.2246875 -306.86078125 1373.8946875 -167.80078125 1373.5546875 C-167.14078125 1364.9746875 -166.48078125 1356.3946875 -165.80078125 1347.5546875 C-164.26150518 1333.42133448 -164.26150518 1333.42133448 -163.64453125 1328.4375 C-163.04699512 1323.57970039 -162.46597901 1318.72031308 -161.89453125 1313.859375 C-158.93176642 1288.91643376 -155.09664894 1264.11823 -149.80078125 1239.5546875 C-149.55602051 1238.40919434 -149.31125977 1237.26370117 -149.05908203 1236.08349609 C-145.31937261 1218.69485317 -141.18061796 1201.52167017 -135.80078125 1184.5546875 C-135.41438477 1183.33120605 -135.02798828 1182.10772461 -134.62988281 1180.84716797 C-121.26526423 1138.75917719 -103.74790723 1098.39391858 -84.80078125 1058.5546875 C-83.9802124 1056.82677979 -83.9802124 1056.82677979 -83.14306641 1055.06396484 C-75.39642875 1038.79116821 -67.37681115 1022.66209681 -59.29580688 1006.55343628 C-53.53164208 995.06106116 -47.8372281 983.54471038 -42.34765625 971.91796875 C-40.5377006 968.08566471 -38.68815131 964.27515999 -36.81640625 960.47265625 C-11.16155231 908.20485042 11.94367834 852.30431049 27 795.984375 C27.81003485 792.95531521 28.6636089 789.9437145 29.5546875 786.9375 C45.41801996 733.30638316 55.20441294 677.64451375 59.98956299 621.97375488 C60.20012714 619.54420623 60.4171093 617.11531435 60.63623047 614.68652344 C61.06282278 609.95590771 61.47743719 605.22432956 61.88671875 600.4921875 C61.97826233 599.44842453 61.97826233 599.44842453 62.07165527 598.38357544 C63.92758711 577.00108205 64.37500477 555.60604643 64.4375 534.15234375 C64.44157553 532.94672728 64.44565105 531.7411108 64.44985008 530.49896049 C64.47047837 524.13920147 64.48488836 517.77946265 64.49438477 511.41967773 C64.50551387 504.90537398 64.54005545 498.3914056 64.57955647 491.87722111 C64.60580693 486.8093761 64.61408316 481.74161114 64.61766624 476.67370415 C64.62249544 474.27261477 64.63400266 471.87152807 64.65270424 469.47050667 C64.75046164 456.11106102 64.13350451 444.36256309 60.19921875 431.5546875 C60.19921875 430.8946875 60.19921875 430.2346875 60.19921875 429.5546875 C59.59674316 429.56516113 58.99426758 429.57563477 58.37353516 429.58642578 C14.34305622 430.24659049 -23.33387627 417.02114543 -55.39306641 385.97802734 C-59.20949889 382.11923418 -62.5206586 377.86835823 -65.80078125 373.5546875 C-66.76371094 372.31525391 -66.76371094 372.31525391 -67.74609375 371.05078125 C-86.10669493 346.70625944 -105.0068233 313.57630958 -105.11328125 282.2421875 C-105.13003906 281.09105469 -105.14679688 279.93992187 -105.1640625 278.75390625 C-104.67383247 274.43671922 -103.09037873 271.84428498 -100.05078125 268.8046875 C-95.25348915 266.13952522 -89.41942671 266.42723263 -84.046875 266.421875 C-82.14518555 266.41994141 -82.14518555 266.41994141 -80.20507812 266.41796875 C-78.24151367 266.42376953 -78.24151367 266.42376953 -76.23828125 266.4296875 C-74.95630859 266.42582031 -73.67433594 266.42195313 -72.35351562 266.41796875 C-59.46047657 266.43098545 -47.05134404 267.18873371 -34.42578125 269.8671875 C-33.33418701 270.09446533 -32.24259277 270.32174316 -31.11791992 270.5559082 C-28.00949107 271.21018104 -24.90488175 271.88022939 -21.80078125 272.5546875 C-21.07165527 272.70776367 -20.3425293 272.86083984 -19.59130859 273.01855469 C2.9326426 277.79023555 25.13270983 286.44430544 46.19921875 295.5546875 C46.50512939 295.08272949 46.81104004 294.61077148 47.1262207 294.12451172 C65.77087775 265.4719332 86.33412203 245.20234111 115.22900391 226.81640625 C116.89777669 225.74772995 118.55039995 224.65390004 120.19921875 223.5546875 C119.78672367 217.22976301 116.66418471 212.33819844 113.63671875 206.9296875 C113.09168701 205.94564941 112.54665527 204.96161133 111.98510742 203.94775391 C108.04287531 196.89936194 103.93671303 190.10244382 99.19921875 183.5546875 C98.4825 182.554375 97.76578125 181.5540625 97.02734375 180.5234375 C92.12096176 173.8236883 86.82740765 167.65107929 81.19921875 161.5546875 C79.6782088 159.82567619 78.15737488 158.09651 76.63671875 156.3671875 C73.39193266 152.76373766 70.04848487 149.50117401 66.3359375 146.38671875 C64.77960435 145.05231245 63.26641554 143.66709285 61.78125 142.25390625 C50.62559532 131.65850601 37.66097357 123.87653134 24.19921875 116.5546875 C23.16152344 115.97074219 22.12382813 115.38679688 21.0546875 114.78515625 C10.00009828 108.86353228 -1.86406238 105.26928327 -13.80078125 101.5546875 C-14.5292627 101.32620117 -15.25774414 101.09771484 -16.00830078 100.86230469 C-32.72861139 95.66987278 -49.03105134 93.41194319 -66.49609375 93.3515625 C-68.45372147 93.34301239 -68.45372147 93.34301239 -70.45089722 93.33428955 C-73.20929341 93.32384452 -75.9676611 93.31796216 -78.72607422 93.31445312 C-81.50095023 93.3101048 -84.27550894 93.29634372 -87.05029297 93.2734375 C-126.63475427 92.95347313 -162.91433848 99.46866594 -198.80078125 116.5546875 C-199.48479004 116.87550293 -200.16879883 117.19631836 -200.87353516 117.52685547 C-230.72498948 131.59182641 -257.54010743 152.44596072 -277.80078125 178.5546875 C-278.50332031 179.40546875 -279.20585937 180.25625 -279.9296875 181.1328125 C-290.91242709 194.88579588 -304.51088659 215.36926036 -304.26953125 233.53125 C-303.66163039 236.15535537 -303.09002411 237.10936044 -300.80078125 238.5546875 C-295.51805261 238.53264552 -292.49515231 236.1404561 -288.73828125 232.7421875 C-288.18245361 232.25588867 -287.62662598 231.76958984 -287.05395508 231.26855469 C-281.94113007 226.76564796 -276.94067819 222.13404763 -271.96875 217.4765625 C-252.51795062 199.42594807 -230.22804962 184.01064001 -205.80078125 173.5546875 C-205.18315918 173.28462891 -204.56553711 173.01457031 -203.92919922 172.73632812 C-161.77361059 154.4127291 -112.55473458 150.17469133 -67.80078125 160.5546875 C-66.75664062 160.78027344 -65.7125 161.00585938 -64.63671875 161.23828125 C-57.29874763 162.91634441 -50.64336333 165.44239228 -43.80078125 168.5546875 C-43.02492676 168.89918945 -42.24907227 169.24369141 -41.44970703 169.59863281 C-29.64295685 174.8624477 -18.89763995 180.46063825 -8.80078125 188.5546875 C-8.24455078 188.98894043 -7.68832031 189.42319336 -7.11523438 189.87060547 C4.89359721 199.28302588 18.76687717 212.1091504 22.19921875 227.5546875 C22.71688514 233.66315093 22.71688514 233.66315093 21.07421875 236.4921875 C17.80663406 238.34381882 14.60720934 237.92154038 11.03564453 236.9909668 C8.45181779 236.17339695 5.88802638 235.30800367 3.32421875 234.4296875 C-52.01713107 216.19367893 -115.25166427 210.88869547 -168.80078125 237.5546875 C-215.36174291 261.49493904 -247.61978983 305.97004792 -263.66894531 355.21875 C-265.54241427 361.28817009 -267.2023297 367.40793719 -268.80078125 373.5546875 C-268.99124023 374.26625 -269.18169922 374.9778125 -269.37792969 375.7109375 C-274.09008505 393.43477685 -277.31744388 412.20800642 -277.80078125 430.5546875 C-277.8265625 431.30476074 -277.85234375 432.05483398 -277.87890625 432.82763672 C-278.52010458 453.38205078 -277.44631467 474.95485414 -270.80078125 494.5546875 C-270.58550781 495.20969238 -270.37023437 495.86469727 -270.1484375 496.53955078 C-264.74720676 512.80045944 -256.34939031 528.08144826 -240.80078125 536.5546875 C-223.15600717 543.33323866 -208.89030514 542.45696851 -191.65234375 534.99609375 C-180.03595591 529.12424839 -171.65782297 519.13506969 -165.17578125 508.1171875 C-164.10178998 506.32590496 -163.02628017 504.53553196 -161.94921875 502.74609375 C-161.43069336 501.88177734 -160.91216797 501.01746094 -160.37792969 500.12695312 C-152.30871841 486.9663943 -152.30871841 486.9663943 -148.80078125 484.5546875 C-145.60574909 484.34631584 -143.76840677 484.76833866 -141.2578125 486.80859375 C-127.96546838 500.98937218 -127.1356248 522.9040403 -127.33422852 541.20483398 C-127.36329189 544.11825434 -127.35475883 547.02985419 -127.34179688 549.94335938 C-127.35717102 565.57283302 -128.91564555 580.16485667 -134.55078125 594.8671875 C-134.90221191 595.80232178 -135.25364258 596.73745605 -135.61572266 597.70092773 C-144.31775824 620.24425877 -160.44425137 638.76599697 -180.80078125 651.5546875 C-182.38246094 652.58722656 -182.38246094 652.58722656 -183.99609375 653.640625 C-193.320844 659.3941943 -203.09569823 662.70261398 -213.53662109 665.86328125 C-215.31780393 666.40720079 -217.08725399 666.98955153 -218.8515625 667.5859375 C-258.8308633 680.33850554 -307.99261545 669.40292454 -344.1328125 650.84765625 C-353.6758376 645.81780637 -362.43105606 640.38229393 -370.80078125 633.5546875 C-372.05568359 632.60142578 -372.05568359 632.60142578 -373.3359375 631.62890625 C-387.55013947 620.58770865 -400.35773282 607.20191598 -410.80078125 592.5546875 C-411.40962158 591.71236572 -411.40962158 591.71236572 -412.03076172 590.85302734 C-433.86322598 560.37045269 -448.20739731 524.12226519 -455.80078125 487.5546875 C-455.97947754 486.73291016 -456.15817383 485.91113281 -456.34228516 485.06445312 C-462.09018453 458.54207731 -463.41304692 431.93117143 -463.36722183 404.89393616 C-463.36322324 402.45682948 -463.36398933 400.0197509 -463.36483765 397.5826416 C-463.34797199 371.84873928 -461.92585016 346.83889218 -456.80078125 321.5546875 C-456.57165039 320.38905273 -456.34251953 319.22341797 -456.10644531 318.02246094 C-455.02085284 312.61763145 -453.79423491 307.2709407 -452.40527344 301.93652344 C-451.75463241 299.37285063 -451.16705028 296.79991352 -450.58984375 294.21875 C-448.35219306 284.27979194 -445.70113815 274.63787136 -442.328125 265.0234375 C-441.08986601 261.48614295 -439.99593789 257.91740982 -438.91796875 254.328125 C-430.12391463 225.57777387 -416.88477999 196.95346889 -400.80078125 171.5546875 C-400.09467171 170.41429793 -399.38893793 169.27367561 -398.68359375 168.1328125 C-389.91829788 154.1087424 -380.50372073 140.17031958 -369.80078125 127.5546875 C-369.34993164 127.01650391 -368.89908203 126.47832031 -368.43457031 125.92382812 C-363.08500336 119.54054524 -357.72522004 113.26039612 -351.72045898 107.47705078 C-349.90175655 105.65580406 -348.23725779 103.77553824 -346.57421875 101.8125 C-342.86300113 97.54260974 -338.87785912 93.65571314 -334.73828125 89.8046875 C-333.99441162 89.11076904 -333.25054199 88.41685059 -332.48413086 87.7019043 C-305.49478444 62.66199673 -274.05106994 40.36786054 -239.81811523 26.41088867 C-237.40817446 25.38805649 -235.04458898 24.27828068 -232.671875 23.171875 C-214.84107817 15.02967313 -195.82051946 9.186401 -176.80078125 4.5546875 C-175.92276855 4.33474121 -175.04475586 4.11479492 -174.14013672 3.88818359 C-158.09737834 -0.08533624 -141.89049285 -2.23991674 -125.48876953 -4.03857422 C-123.24391418 -4.28615326 -120.99982903 -4.5410464 -118.75732422 -4.80908203 C-81.82915112 -9.22204804 -36.11351902 -10.18385569 0 0 Z " fill="#FEFEFE" transform="translate(576.80078125,177.4453125)"/>
<path d="M0 0 C19.58889517 16.55087589 32.77931112 37.93295222 40.8125 62.1875 C40.8125 63.1775 40.8125 64.1675 40.8125 65.1875 C34.07733097 65.27716941 27.39876398 65.31946252 20.6875 64.6875 C3.47709192 63.14151883 -13.85816554 64.49772998 -27.64453125 75.98828125 C-29.37186067 77.46104172 -31.07106418 78.9500673 -32.73681641 80.4921875 C-35.80755446 83.28748376 -37.99763592 84.84027369 -42.1875 85.1875 C-42.62578125 84.09695313 -43.0640625 83.00640625 -43.515625 81.8828125 C-57.10006544 49.17546263 -80.56444238 25.72382156 -110.1875 7.1875 C-106.10525587 -2.37244926 -94.14617754 -6.86244853 -85.1875 -10.8125 C-57.4711993 -21.60555357 -23.66212154 -18.22424268 0 0 Z " fill="#01CFEC" transform="translate(1109.1875,413.8125)"/>
<path d="M0 0 C3.875 1.875 3.875 1.875 5 3 C6.30706506 9.64898312 6.22658689 16.37047767 6.375 23.125 C6.76599883 38.60062054 7.60838567 54.04615265 8.5 69.5 C8.59870392 71.21488617 8.59870392 71.21488617 8.69940186 72.9644165 C9.07070324 79.39204586 9.4514073 85.81905237 9.83782959 92.24578857 C9.98299606 94.71121455 10.11913809 97.17687314 10.25048828 99.64306641 C10.72322095 108.28922143 11.63428429 116.80550092 12.875 125.375 C13.13845215 127.24466431 13.13845215 127.24466431 13.40722656 129.15209961 C14.53040358 137.02911737 15.73543677 144.8894113 17.13623047 152.72216797 C17.69879095 155.90422467 18 158.74809529 18 162 C-4.44 162 -26.88 162 -50 162 C-50 148.48423818 -50 148.48423818 -49.046875 142.2421875 C-48.94683167 141.57518829 -48.84678833 140.90818909 -48.74371338 140.22097778 C-48.42258715 138.1039428 -48.08748923 135.98948316 -47.75 133.875 C-47.63640137 133.14700195 -47.52280273 132.41900391 -47.40576172 131.66894531 C-44.87175856 115.43849468 -41.43563826 99.79015582 -36.62792969 84.08691406 C-36.0121733 82.04045776 -35.42674785 79.98788086 -34.8515625 77.9296875 C-16.29270656 11.87434546 -16.29270656 11.87434546 0 0 Z " fill="#02CFEC" transform="translate(508,1390)"/>
<path d="M0 0 C1.21623047 -0.01224609 2.43246094 -0.02449219 3.68554688 -0.03710938 C31.67249147 -0.08217692 55.27258494 12.55390184 74.93359375 31.74609375 C79.02786142 36.06742652 79.02786142 36.06742652 80.3125 38.1875 C80.0078125 40.44140625 80.0078125 40.44140625 79.3125 42.1875 C75.20767207 43.32064263 72.55299263 42.97078091 68.5 41.75 C67.52417969 41.46253906 66.54835938 41.17507813 65.54296875 40.87890625 C64.80691406 40.65074219 64.07085938 40.42257812 63.3125 40.1875 C63.374375 41.445625 63.43625 42.70375 63.5 44 C63.47582975 51.67405379 61.7359039 59.58143405 56.89453125 65.6953125 C53.80291294 68.61135742 50.10827707 70.35366099 46.3125 72.1875 C45.28125 72.765 44.25 73.3425 43.1875 73.9375 C33.26066751 78.25351412 16.48545642 77.73071238 6.3125 74.1875 C-11.94064422 66.61349418 -21.39547397 54.86500603 -29.6875 37.1875 C-35.45606753 37.55925213 -39.50907697 38.48059705 -44.6875 41.1875 C-47.4375 41.5625 -47.4375 41.5625 -49.6875 41.1875 C-52.0786665 37.60075025 -52.50968879 35.32027197 -51.6875 31.1875 C-46.52260326 17.80655756 -38.38290233 9.20441553 -25.4140625 3.12109375 C-17.0879571 -0.1806377 -8.8115265 0.00459652 0 0 Z " fill="#01CFEC" transform="translate(749.6875,522.8125)"/>
<path d="M0 0 C9.97272163 1.3338607 19.91057458 1.72818589 29.96484375 1.72265625 C31.19477051 1.72330078 32.42469727 1.72394531 33.69189453 1.72460938 C41.51151808 1.67923638 49.00476937 1.14506531 56.7265625 -0.0078125 C71.035357 -1.88253698 71.035357 -1.88253698 76.921875 0.7421875 C80.259983 3.35239461 81.95991019 5.46821258 82.49121094 9.77587891 C82.61984848 12.47366537 82.62376502 15.14714628 82.58984375 17.84765625 C82.60144531 18.75966797 82.61304688 19.67167969 82.625 20.61132812 C82.59472542 27.65016712 81.89396632 33.59290557 77.02734375 38.9375 C73.52530138 40.92685463 70.14666679 41.55721194 66.21484375 42.09765625 C59.21455606 43.04404751 59.21455606 43.04404751 53.21484375 46.53515625 C51.29204184 49.61615596 49.87057422 52.93469276 48.4296875 56.26171875 C47.47265625 58.26171875 47.47265625 58.26171875 45.21484375 61.53515625 C41.65625 62.69140625 41.65625 62.69140625 38.21484375 62.53515625 C36.359375 61.27734375 36.359375 61.27734375 35.02734375 59.41015625 C34.54652344 58.76433594 34.06570313 58.11851562 33.5703125 57.453125 C33.12300781 56.82019531 32.67570312 56.18726563 32.21484375 55.53515625 C31.03921875 54.14296875 31.03921875 54.14296875 29.83984375 52.72265625 C28.21484375 50.53515625 28.21484375 50.53515625 28.21484375 48.53515625 C25.28845628 47.02803291 22.32786372 45.70884539 19.27734375 44.47265625 C18.44332031 44.13105469 17.60929688 43.78945313 16.75 43.4375 C11.45199335 41.55176882 6.38778058 41.40199514 0.80859375 41.39453125 C-0.8385556 41.37621305 -2.48569143 41.35664366 -4.1328125 41.3359375 C-6.71361393 41.30692868 -9.29353634 41.28515467 -11.87451172 41.28466797 C-14.37675822 41.281331 -16.87700734 41.24678879 -19.37890625 41.20703125 C-20.14674438 41.21410095 -20.91458252 41.22117065 -21.70568848 41.22845459 C-25.75862381 41.13659347 -27.55737398 40.72308655 -30.7253418 38.109375 C-35.86370408 31.68779246 -37.16257998 25.96029298 -37.28515625 17.84765625 C-37.30360596 17.12288086 -37.32205566 16.39810547 -37.34106445 15.65136719 C-37.28162848 10.52221907 -36.10005523 7.62251793 -32.78515625 3.53515625 C-23.7651879 -4.60481519 -11.16091286 -1.58103173 0 0 Z " fill="#01CFEC" transform="translate(999.78515625,720.46484375)"/>
</svg>
